<?xml version="1.0" standalone="no"?>
<!DOCTYPE svg PUBLIC "-//W3C//DTD SVG 1.1//EN" "http://www.w3.org/Graphics/SVG/1.1/DTD/svg11.dtd" >
<svg>
<metadata>
Created by FontForge 20090914 at Sun May 28 12:24:19 2017
 By www-data
Copyright (c) 1990 Adobe Systems Incorporated.  All Rights Reserved.NeuzeitS is a registered trademark of Linotype AG and/or its subsidiaries.
</metadata>
<defs>
<font id="NeuzeitS-BookHeavy" horiz-adv-x="556" >
  <font-face 
    font-family="NeuzeitS"
    font-weight="900"
    font-stretch="normal"
    units-per-em="1000"
    panose-1="2 0 9 3 4 0 0 2 0 3"
    ascent="800"
    descent="-200"
    x-height="514"
    cap-height="752"
    bbox="-171 -234.002 1000 980.999"
    underline-thickness="50"
    underline-position="-50"
    unicode-range="U+0020-U+FB02"
  />
<missing-glyph horiz-adv-x="278" 
 />
    <glyph glyph-name="fi" unicode="fi" horiz-adv-x="611" 
d="M472 590c-12 0 -23.168 2.5 -33.501 7.5s-19.166 11.333 -26.499 19s-13.166 16.5 -17.499 26.5s-6.5 20 -6.5 30c0 10.667 2.16699 21 6.5 31s10.166 19 17.499 27s16.166 14.5 26.499 19.5s21.5 7.5 33.5 7.5c10.667 0 21 -2.16699 31 -6.5s19 -10.333 27 -18
s14.333 -16.5 19 -26.5s7 -20.667 7 -32s-2.16699 -22 -6.5 -32s-10.333 -19 -18 -27s-16.667 -14.333 -27 -19s-21.166 -7 -32.499 -7zM399.999 514h144v-514h-144v514zM83.999 404l-73 0.000976562v110h73v67c0 36 4.33301 65.5 13 88.5s21.5 41 38.5 54
s37.833 22 62.5 27s53 7.5 85 7.5h28v-122h-40c-12.667 0 -23 -3.33301 -31 -10s-12 -17.334 -12 -32.001v-80h83v-110h-83v-404h-144v404z" />
    <glyph glyph-name="fl" unicode="fl" horiz-adv-x="611" 
d="M400 752h144v-752h-144v752zM84 404l-73 0.000976562v110h73v67c0 36 4.33301 65.5 13 88.5s21.5 41 38.5 54s37.833 22 62.5 27s53 7.5 85 7.5h28v-122h-40c-12.667 0 -23 -3.33301 -31 -10s-12 -17.334 -12 -32.001v-80h83v-110h-83v-404h-144v404z" />
    <glyph glyph-name=".notdef" horiz-adv-x="278" 
 />
    <glyph glyph-name="space" unicode=" " horiz-adv-x="278" 
 />
    <glyph glyph-name="space" unicode="&#xa0;" horiz-adv-x="278" 
 />
    <glyph glyph-name="exclam" unicode="!" horiz-adv-x="332" 
d="M82 72c0 23.333 8.16699 43.166 24.5 59.499s36.166 24.5 59.499 24.5s43.166 -8.16699 59.499 -24.5s24.5 -36.166 24.5 -59.499s-8.16699 -43.166 -24.5 -59.499s-36.166 -24.5 -59.499 -24.5s-43.166 8.16699 -59.499 24.5s-24.5 36.166 -24.5 59.499zM94 752h144
v-516h-144v516z" />
    <glyph glyph-name="quotedbl" unicode="&#x22;" horiz-adv-x="333" 
d="M8 752h104v-278h-104v278zM221 752h104v-278h-104v278z" />
    <glyph glyph-name="numbersign" unicode="#" 
d="M342 438h-102l-17 -136h102zM122 216h-89v86h101l17 136h-88v86h100l28 216h89l-28 -216h102l28 216h89l-28 -216h80v-86h-92l-17 -136h79v-86h-91l-29 -216h-88l28 216h-102l-29 -216h-88z" />
    <glyph glyph-name="dollar" unicode="$" 
d="M250 642c-8.66699 -2 -17.333 -4.66309 -26 -7.99609s-16.5 -8.33301 -23.5 -15s-12.667 -15.5 -17 -26.5s-6.5 -24.833 -6.5 -41.5s2.5 -30.334 7.5 -41.001s11.333 -19.334 19 -26.001s15.667 -11.834 24 -15.501s15.833 -6.83398 22.5 -9.50098v183zM250.001 319.004
c-14 3.33301 -32.834 9.33496 -56.501 18.002s-47 21.334 -70 38.001s-42.833 38.167 -59.5 64.5s-25 59.166 -25 98.499c0 63.333 18 113 54 149s88.333 57.667 157 65v77h54v-77c8.66699 -0.666992 19.834 -2 33.501 -4s28 -5.5 43 -10.5s30.167 -12 45.5 -21
s29.166 -21.167 41.499 -36.5s22.666 -34.333 30.999 -57s12.833 -50 13.5 -82h-138c-2.66699 20.667 -6 37.167 -10 49.5s-9 22 -15 29s-12.667 12 -20 15s-15.666 5.5 -24.999 7.5v-198c32 -8.66699 61.333 -18.834 88 -30.501s49.834 -26.5 69.501 -44.5
s35 -39.833 46 -65.5s16.5 -56.834 16.5 -93.501c0 -30 -4 -56.167 -12 -78.5s-18.333 -41.5 -31 -57.5s-27 -29.167 -43 -39.5s-32.167 -18.833 -48.5 -25.5s-32 -11.5 -47 -14.5s-27.833 -5.16699 -38.5 -6.5v-112h-54v112c-9.33301 0.666992 -21.166 2.16699 -35.499 4.5
s-29.333 6.16602 -45 11.499s-31.667 12.666 -48 21.999s-31 22 -44 38s-23.667 35.833 -32 59.5s-12.833 51.834 -13.5 84.501h138c0.666992 -8.66699 1.66699 -18.5 3 -29.5s4.5 -21.667 9.5 -32s12.667 -19.666 23 -27.999s25.166 -13.833 44.499 -16.5v217zM304 101.006
c25.333 2.66699 45.333 13.332 60 31.999s22 42 22 70c0 16 -2 29.5 -6 40.5s-9.5 20.333 -16.5 28s-15.5 14.334 -25.5 20.001s-21.333 11.167 -34 16.5v-207z" />
    <glyph glyph-name="percent" unicode="%" horiz-adv-x="1000" 
d="M670 761h82l-431 -782h-86zM716 68c12 0 21.667 3.16699 29 9.5s13 14.666 17 24.999s6.83301 22.166 8.5 35.499s2.5 27 2.5 41s-0.833008 27.667 -2.5 41s-4.5 25.166 -8.5 35.499s-9.66699 18.666 -17 24.999s-17 9.5 -29 9.5s-21.667 -3.16699 -29 -9.5
s-13 -14.666 -17 -24.999s-6.83301 -22.166 -8.5 -35.499s-2.5 -27 -2.5 -41s0.833008 -27.667 2.5 -41s4.5 -25.166 8.5 -35.499s9.66699 -18.666 17 -24.999s17 -9.5 29 -9.5zM716 -12c-24 0 -46.167 3.83301 -66.5 11.5s-38 19.5 -53 35.5s-26.667 36 -35 60
s-12.5 52 -12.5 84s4.16699 60 12.5 84s20 44 35 60s32.667 27.833 53 35.5s42.5 11.5 66.5 11.5s46.167 -3.83301 66.5 -11.5s38 -19.5 53 -35.5s26.667 -36 35 -60s12.5 -52 12.5 -84s-4.16699 -60 -12.5 -84s-20 -44 -35 -60s-32.667 -27.833 -53 -35.5
s-42.5 -11.5 -66.5 -11.5zM284 370c-24 0 -46.167 3.83301 -66.5 11.5s-38 19.5 -53 35.5s-26.667 36 -35 60s-12.5 52 -12.5 84s4.16699 60 12.5 84s20 44 35 60s32.667 27.833 53 35.5s42.5 11.5 66.5 11.5s46.167 -3.83301 66.5 -11.5s38 -19.5 53 -35.5
s26.667 -36 35 -60s12.5 -52 12.5 -84s-4.16699 -60 -12.5 -84s-20 -44 -35 -60s-32.667 -27.833 -53 -35.5s-42.5 -11.5 -66.5 -11.5zM284 450c12 0 21.667 3.16699 29 9.5s13 14.666 17 24.999s6.83301 22.166 8.5 35.499s2.5 27 2.5 41s-0.833008 27.667 -2.5 41
s-4.5 25.166 -8.5 35.499s-9.66699 18.666 -17 24.999s-17 9.5 -29 9.5s-21.667 -3.16699 -29 -9.5s-13 -14.666 -17 -24.999s-6.83301 -22.166 -8.5 -35.499s-2.5 -27 -2.5 -41s0.833008 -27.667 2.5 -41s4.5 -25.166 8.5 -35.499s9.66699 -18.666 17 -24.999
s17 -9.5 29 -9.5z" />
    <glyph glyph-name="ampersand" unicode="&#x26;" horiz-adv-x="722" 
d="M672 384c-3.33301 -28.667 -6.8291 -53.8311 -10.4961 -75.498s-8.5 -41.5 -14.5 -59.5s-13 -35.167 -21 -51.5s-18 -33.5 -30 -51.5l117 -146h-165l-42 54c-20.667 -16 -48.334 -31.333 -83.001 -46s-74.334 -22 -119.001 -22c-41.333 0 -77.833 6.16699 -109.5 18.5
s-58.334 29 -80.001 50s-38.167 45.667 -49.5 74s-17 58.5 -17 90.5c0 26.667 4.16699 51.667 12.5 75s19.5 44.333 33.5 63s30 35.167 48 49.5s37 25.833 57 34.5c-18 32 -31.167 58.833 -39.5 80.5s-12.5 42.834 -12.5 63.501c0 22 4.5 43 13.5 63s21.667 37.833 38 53.5
s36.166 28 59.499 37s49 13.5 77 13.5c36.667 0 67.167 -5.66699 91.5 -17s43.666 -24.833 57.999 -40.5s24.5 -32.167 30.5 -49.5s9 -32 9 -44c0 -46.667 -12.5 -86.334 -37.5 -119.001s-57.5 -58.334 -97.5 -77.001l120 -150c4 6 8 14.167 12 24.5s7.33301 21.333 10 33
s4.83398 23.667 6.50098 36s2.5 24.166 2.5 35.499h132zM404.004 591.003c0 19.333 -6.66504 33.667 -19.998 43s-27 14 -41 14c-17.333 0 -32.333 -5.16699 -45 -15.5s-19 -24.833 -19 -43.5c0 -10 3.16699 -22 9.5 -36s18.166 -33.667 35.499 -59
c15.333 10.667 28.166 20 38.499 28s18.5 15.833 24.5 23.5s10.333 15 13 22s4 14.833 4 23.5zM270.006 346.004c-16.667 -12 -30.1689 -23.5 -40.502 -34.5s-18.166 -21.667 -23.499 -32s-9 -20.333 -11 -30s-3 -18.834 -3 -27.501c0 -17.333 3.5 -33 10.5 -47
s16 -26 27 -36s23.667 -17.667 38 -23s29.166 -8 44.499 -8c24.667 0 46.334 3.83301 65.001 11.5s34.334 17.834 47.001 30.501z" />
    <glyph glyph-name="quotesingle" unicode="'" horiz-adv-x="222" 
d="M59 752h104v-278h-104v278z" />
    <glyph glyph-name="parenleft" unicode="(" horiz-adv-x="333" 
d="M230 -199c-4.66699 4.66699 -12.667 13.5 -24 26.5s-24.333 29.833 -39 50.5s-30 45.167 -46 73.5s-30.5 60 -43.5 95s-23.833 73.333 -32.5 115s-13 86.167 -13 133.5s4.33301 91.833 13 133.5s19.5 80 32.5 115s27.5 66.667 43.5 95s31.333 52.833 46 73.5
s27.667 37.5 39 50.5s19.333 21.833 24 26.5l88 -70c-21.333 -26 -41.5 -53.667 -60.5 -83s-36 -61 -51 -95s-26.833 -71.333 -35.5 -112s-13 -85.334 -13 -134.001c0 -49.333 4.33301 -94.166 13 -134.499s20.5 -77.5 35.5 -111.5s32 -65.667 51 -95s39.167 -57 60.5 -83z
" />
    <glyph glyph-name="parenright" unicode=")" horiz-adv-x="333" 
d="M103 789c4.66699 -4.66699 12.667 -13.5 24 -26.5s24.333 -29.833 39 -50.5s30 -45.167 46 -73.5s30.5 -60 43.5 -95s23.833 -73.333 32.5 -115s13 -86.167 13 -133.5s-4.33301 -91.833 -13 -133.5s-19.5 -80 -32.5 -115s-27.5 -66.667 -43.5 -95
s-31.333 -52.833 -46 -73.5s-27.667 -37.5 -39 -50.5s-19.333 -21.833 -24 -26.5l-88 70c20.667 26 40.667 53.667 60 83s36.5 61 51.5 95s26.833 71.167 35.5 111.5s13 85.166 13 134.499c0 48.667 -4.33301 93.334 -13 134.001s-20.5 78 -35.5 112
s-32.167 65.667 -51.5 95s-39.333 57 -60 83z" />
    <glyph glyph-name="asterisk" unicode="*" 
d="M275 499l-73 -116l-73 51l82 109l-128 37l24 81l127 -43l-4 134h90l-4 -136l127 49l30 -84l-133 -39l86 -105l-75 -53z" />
    <glyph glyph-name="plus" unicode="+" horiz-adv-x="600" 
d="M248 506h104v-201h201v-104h-201v-201h-104v201h-201v104h201v201z" />
    <glyph glyph-name="comma" unicode="," horiz-adv-x="278" 
d="M85 162l141 -46l-128 -286l-94 31z" />
    <glyph glyph-name="hyphen" unicode="-" horiz-adv-x="333" 
d="M20 329h293v-134h-293v134z" />
    <glyph glyph-name="hyphen" unicode="&#xad;" horiz-adv-x="333" 
d="M20 329h293v-134h-293v134z" />
    <glyph glyph-name="period" unicode="." horiz-adv-x="278" 
d="M55 72c0 23.333 8.16699 43.166 24.5 59.499s36.166 24.5 59.499 24.5s43.166 -8.16699 59.499 -24.5s24.5 -36.166 24.5 -59.499s-8.16699 -43.166 -24.5 -59.499s-36.166 -24.5 -59.499 -24.5s-43.166 8.16699 -59.499 24.5s-24.5 36.166 -24.5 59.499z" />
    <glyph glyph-name="slash" unicode="/" horiz-adv-x="444" 
d="M314 766h110l-294 -780h-110z" />
    <glyph glyph-name="zero" unicode="0" 
d="M373 370c0 32.667 -0.832031 64.167 -2.49902 94.5s-5.66699 57.333 -12 81s-15.833 42.667 -28.5 57s-30 21.5 -52 21.5s-39.333 -7.16699 -52 -21.5s-22.167 -33.333 -28.5 -57s-10.333 -50.667 -12 -81s-2.5 -61.833 -2.5 -94.5c0 -37.333 1.33301 -71.666 4 -102.999
s7.66699 -58.166 15 -80.499s17 -39.666 29 -51.999s27.667 -18.5 47 -18.5c18.667 0 34.167 6.16699 46.5 18.5s22.166 29.666 29.499 51.999s12.333 49.166 15 80.499s4 65.666 4 102.999zM33.001 370c0 18.667 0.501953 41 1.50195 67s3.83301 53.167 8.5 81.5
s12.167 56.5 22.5 84.5s24.5 53 42.5 75s40.833 39.833 68.5 53.5s61.5 20.5 101.5 20.5s73.833 -6.83301 101.5 -20.5s50.5 -31.5 68.5 -53.5s32.167 -47 42.5 -75s17.833 -56.167 22.5 -84.5s7.5 -55.5 8.5 -81.5s1.5 -48.333 1.5 -67c0 -28 -1.33301 -56.833 -4 -86.5
s-7.33398 -58.667 -14.001 -87s-15.834 -55.166 -27.501 -80.499s-26.667 -47.5 -45 -66.5s-40.166 -34 -65.499 -45s-55 -16.5 -89 -16.5s-63.667 5.5 -89 16.5s-47.166 26 -65.499 45s-33.333 41.167 -45 66.5s-20.834 52.166 -27.501 80.499s-11.334 57.333 -14.001 87
s-4 58.5 -4 86.5z" />
    <glyph glyph-name="one" unicode="1" 
d="M248 565c-20 -14 -43.833 -29.332 -71.5 -45.999s-59.167 -32.667 -94.5 -48v135l43 24c16.667 9.33301 34 20.166 52 32.499s36.167 26 54.5 41s34.833 31.167 49.5 48.5h111v-752h-144v565z" />
    <glyph glyph-name="two" unicode="2" 
d="M31 113l271.002 290.003c26 28.667 43.333 52.834 52 72.501s13 39.167 13 58.5c0 10.667 -1.83301 21.5 -5.5 32.5s-9.33398 20.667 -17.001 29s-17 15.166 -28 20.499s-23.833 8 -38.5 8c-30.667 0 -54.667 -10.833 -72 -32.5s-26 -55.5 -26 -101.5h-138v16
c0 45.333 7.5 83.666 22.5 114.999s34 56.666 57 75.999s48.5 33.333 76.5 42s54.667 13 80 13c35.333 0 67.666 -5.5 96.999 -16.5s54.5 -26 75.5 -45s37.333 -41.5 49 -67.5s17.5 -54.333 17.5 -85c0 -23.333 -2.66699 -45.333 -8 -66s-14.5 -41.834 -27.5 -63.501
s-30 -44.667 -51 -69s-47.167 -51.833 -78.5 -82.5l-128 -129h301v-128h-494v113z" />
    <glyph glyph-name="three" unicode="3" 
d="M174 448l149.998 164.003h-269v128h439v-122l-166 -168c30.667 0 58.334 -5.5 83.001 -16.5s45.667 -26 63 -45s30.666 -41.5 39.999 -67.5s14 -54 14 -84c0 -36.667 -6.33301 -70.334 -19 -101.001s-30.334 -57 -53.001 -79s-49.834 -39 -81.501 -51
s-66.167 -18 -103.5 -18c-23.333 0 -48.5 3.16699 -75.5 9.5s-52.5 17.666 -76.5 33.999s-44.5 38.5 -61.5 66.5s-26.833 63.667 -29.5 107l144 9c0.666992 -22 5.16699 -39.333 13.5 -52s17.833 -22.5 28.5 -29.5s21.334 -11.5 32.001 -13.5s19 -3 25 -3
c15.333 0 29.5 3.16699 42.5 9.5s24.333 15 34 26s17.167 23.333 22.5 37s8 28.167 8 43.5c0 17.333 -3.16699 33 -9.5 47s-14.666 26 -24.999 36s-22.333 17.667 -36 23s-27.5 8 -41.5 8c-19.333 0 -37.166 -2.83301 -53.499 -8.5s-29.166 -10.834 -38.499 -15.501v126z
" />
    <glyph glyph-name="four" unicode="4" 
d="M21 309l267 431h163v-446h84v-110h-84v-184h-138v184h-292v125zM313 588h-2l-177 -294h179v294z" />
    <glyph glyph-name="five" unicode="5" 
d="M66 740h421.998v-128h-298l-10 -169c19.333 15.333 39.833 26 61.5 32s43.834 9 66.501 9c26.667 0 53 -4.66699 79 -14s49.333 -23.833 70 -43.5s37.334 -44.5 50.001 -74.5s19 -66 19 -108c0 -34 -5.5 -66.5 -16.5 -97.5s-27.167 -58.167 -48.5 -81.5
s-47.666 -42 -78.999 -56s-67.333 -21 -108 -21c-20.667 0 -43.834 2.33301 -69.501 7s-50.5 13.667 -74.5 27s-45.167 32.333 -63.5 57s-30.5 57 -36.5 97l146 13c2.66699 -8 6 -16.333 10 -25s9.5 -16.5 16.5 -23.5s16.167 -12.833 27.5 -17.5s26 -7 44 -7
c10.667 0 22 1.83301 34 5.5s23 10.167 33 19.5s18.333 22.333 25 39s10 37.667 10 63c0 16 -2.66699 31 -8 45s-12.5 26 -21.5 36s-19.667 17.833 -32 23.5s-25.166 8.5 -38.499 8.5c-19.333 0 -36.833 -3 -52.5 -9s-29.834 -18 -42.501 -36l-129 7z" />
    <glyph glyph-name="six" unicode="6" 
d="M384 229c0 12.667 -1.66699 26.167 -5 40.5s-8.83301 27.166 -16.5 38.499s-17.834 20.833 -30.501 28.5s-28.667 11.5 -48 11.5s-35.333 -3.83301 -48 -11.5s-22.834 -17.167 -30.501 -28.5s-13.167 -24.166 -16.5 -38.499s-5 -27.833 -5 -40.5
c0 -13.333 1.66699 -27 5 -41s8.83301 -26.667 16.5 -38s17.834 -20.833 30.501 -28.5s28.667 -11.5 48 -11.5s35.333 3.83301 48 11.5s22.834 17.167 30.501 28.5s13.167 24 16.5 38s5 27.667 5 41zM367 556c0 6 -1.16406 12.835 -3.49707 20.502s-6.33301 15 -12 22
s-13.5 13 -23.5 18s-22.667 7.5 -38 7.5c-26 0 -46.5 -6.33301 -61.5 -19s-26.333 -29.334 -34 -50.001s-13 -44.334 -16 -71.001s-5.5 -54 -7.5 -82h2l21 24.5c7.33301 8.33301 16.166 15.666 26.499 21.999s22.5 11.5 36.5 15.5s31 6 51 6
c27.333 0 54.166 -4.66699 80.499 -14s49.833 -23.5 70.5 -42.5s37.334 -43 50.001 -72s19 -63.5 19 -103.5c0 -39.333 -6.16699 -74.5 -18.5 -105.5s-29.333 -57.167 -51 -78.5s-47.334 -37.666 -77.001 -48.999s-61.834 -17 -96.501 -17
c-42.667 0 -78.667 7.16699 -108 21.5s-53.5 32.833 -72.5 55.5s-33.667 48 -44 76s-17.833 55.833 -22.5 83.5s-7.5 53.5 -8.5 77.5s-1.5 43 -1.5 57c0 42.667 3.16699 87 9.5 133s19 88.333 38 127s46 70.5 81 95.5s81.167 37.5 138.5 37.5c38.667 0 71.5 -6 98.5 -18
s49 -27.167 66 -45.5s29.5 -38.5 37.5 -60.5s12.667 -43 14 -63z" />
    <glyph glyph-name="seven" unicode="7" 
d="M33 740h490.001v-127c-14.667 -22.667 -32.834 -54 -54.501 -94s-43.5 -86.5 -65.5 -139.5s-43 -111.667 -63 -176s-36 -132.166 -48 -203.499h-158c16 84 34.667 157.667 56 221s42.833 119.166 64.5 167.499s42.667 90.5 63 126.5l53.5 97h-338v128z" />
    <glyph glyph-name="eight" unicode="8" 
d="M33 224c0 50.667 10.9941 89.834 32.9941 117.501s50.333 48.167 85 61.5c-28 11.333 -51 29 -69 53s-27 55 -27 93c0 28.667 4.83301 55.5 14.5 80.5s24 46.5 43 64.5s42.333 32.167 70 42.5s59.5 15.5 95.5 15.5s67.833 -5.16699 95.5 -15.5s51 -24.5 70 -42.5
s33.333 -39.5 43 -64.5s14.5 -51.833 14.5 -80.5c0 -38 -9 -69 -27 -93s-41 -41.667 -69 -53c34.667 -13.333 63 -33.833 85 -61.5s33 -66.834 33 -117.501c0 -42 -7.16699 -77.833 -21.5 -107.5s-33.166 -54 -56.499 -73s-49.666 -33 -78.999 -42
s-58.666 -13.5 -87.999 -13.5s-58.666 4.5 -87.999 13.5s-55.666 23 -78.999 42s-42.166 43.333 -56.499 73s-21.5 65.5 -21.5 107.5zM277.994 450c26 0 46.667 8.33301 62 25s23 39.334 23 68.001s-7.66699 51.334 -23 68.001s-36 25 -62 25s-46.667 -8.33301 -62 -25
s-23 -39.334 -23 -68.001s7.66699 -51.334 23 -68.001s36 -25 62 -25zM378.994 224c0 23.333 -3.5 42.5 -10.5 57.5s-15.667 26.833 -26 35.5s-21.333 14.667 -33 18s-22.167 5 -31.5 5s-19.833 -1.66699 -31.5 -5s-22.667 -9.33301 -33 -18s-19 -20.5 -26 -35.5
s-10.5 -34.167 -10.5 -57.5c0 -32.667 8.83301 -59.834 26.5 -81.501s42.5 -32.5 74.5 -32.5s56.833 10.833 74.5 32.5s26.5 48.834 26.5 81.501z" />
    <glyph glyph-name="nine" unicode="9" 
d="M372 511c0 12.667 -1.66699 26.167 -5 40.5s-8.83301 27.166 -16.5 38.499s-17.834 20.833 -30.501 28.5s-28.667 11.5 -48 11.5s-35.333 -3.83301 -48 -11.5s-22.834 -17.167 -30.501 -28.5s-13.167 -24.166 -16.5 -38.499s-5 -27.833 -5 -40.5
c0 -13.333 1.66699 -27 5 -41s8.83301 -26.667 16.5 -38s17.834 -20.833 30.501 -28.5s28.667 -11.5 48 -11.5s35.333 3.83301 48 11.5s22.834 17.167 30.501 28.5s13.167 24 16.5 38s5 27.667 5 41zM189 184c0 -6 1.16406 -13.001 3.49707 -21.001s6.33301 -15.5 12 -22.5
s13.5 -12.833 23.5 -17.5s22.667 -7 38 -7c26 0 46.5 6.33301 61.5 19s26.333 29.334 34 50.001s13 44.334 16 71.001s5.5 54 7.5 82h-2l-21 -24.5c-7.33301 -8.33301 -16.166 -15.666 -26.499 -21.999s-22.5 -11.5 -36.5 -15.5s-31 -6 -51 -6
c-27.333 0 -54.166 4.5 -80.499 13.5s-49.833 23 -70.5 42s-37.334 43.167 -50.001 72.5s-19 64 -19 104c0 39.333 6.16699 74.5 18.5 105.5s29.333 57.167 51 78.5s47.334 37.666 77.001 48.999s61.834 17 96.501 17c42.667 0 78.667 -7.16699 108 -21.5
s53.5 -32.833 72.5 -55.5s33.667 -48 44 -76s17.833 -55.833 22.5 -83.5s7.5 -53.5 8.5 -77.5s1.5 -43 1.5 -57c0 -28.667 -1.33301 -58.167 -4 -88.5s-7.5 -60 -14.5 -89s-16.667 -56.5 -29 -82.5s-28.333 -48.833 -48 -68.5s-43.667 -35.334 -72 -47.001
s-61.5 -17.5 -99.5 -17.5c-38.667 0 -71.5 6 -98.5 18s-49 27.167 -66 45.5s-29.667 38.5 -38 60.5s-12.833 43 -13.5 63z" />
    <glyph glyph-name="colon" unicode=":" horiz-adv-x="278" 
d="M139 -12c-23.333 0 -43.166 8.16699 -59.499 24.5s-24.5 36.166 -24.5 59.499s8.16699 43.166 24.5 59.499s36.166 24.5 59.499 24.5s43.166 -8.16699 59.499 -24.5s24.5 -36.166 24.5 -59.499s-8.16699 -43.166 -24.5 -59.499s-36.166 -24.5 -59.499 -24.5zM139 339
c-23.333 0 -43.166 8.16699 -59.499 24.5s-24.5 36.166 -24.5 59.499s8.16699 43.166 24.5 59.499s36.166 24.5 59.499 24.5s43.166 -8.16699 59.499 -24.5s24.5 -36.166 24.5 -59.499s-8.16699 -43.166 -24.5 -59.499s-36.166 -24.5 -59.499 -24.5z" />
    <glyph glyph-name="semicolon" unicode=";" horiz-adv-x="278" 
d="M55 423c0 23.333 8.16699 43.166 24.5 59.499s36.166 24.5 59.499 24.5s43.166 -8.16699 59.499 -24.5s24.5 -36.166 24.5 -59.499s-8.16699 -43.166 -24.5 -59.499s-36.166 -24.5 -59.499 -24.5s-43.166 8.16699 -59.499 24.5s-24.5 36.166 -24.5 59.499zM226 116
l-128 -286l-94 31l81 301z" />
    <glyph glyph-name="semicolon" unicode="&#x37e;" horiz-adv-x="278" 
d="M55 423c0 23.333 8.16699 43.166 24.5 59.499s36.166 24.5 59.499 24.5s43.166 -8.16699 59.499 -24.5s24.5 -36.166 24.5 -59.499s-8.16699 -43.166 -24.5 -59.499s-36.166 -24.5 -59.499 -24.5s-43.166 8.16699 -59.499 24.5s-24.5 36.166 -24.5 59.499zM226 116
l-128 -286l-94 31l81 301z" />
    <glyph glyph-name="less" unicode="&#x3c;" horiz-adv-x="600" 
d="M553 -8l-506 218v86l506 218v-102l-372 -159l372 -159v-102z" />
    <glyph glyph-name="equal" unicode="=" horiz-adv-x="600" 
d="M553 92h-506v104h506v-104zM553 310h-506v104h506v-104z" />
    <glyph glyph-name="greater" unicode="&#x3e;" horiz-adv-x="600" 
d="M419 253l-372 159v102l506 -218v-86l-506 -218v102z" />
    <glyph glyph-name="question" unicode="?" 
d="M262 -12c-23.333 0 -43.166 8.16699 -59.499 24.5s-24.5 36.166 -24.5 59.499s8.16699 43.166 24.5 59.499s36.166 24.5 59.499 24.5s43.166 -8.16699 59.499 -24.5s24.5 -36.166 24.5 -59.499s-8.16699 -43.166 -24.5 -59.499s-36.166 -24.5 -59.499 -24.5zM187 236
l-0.00488281 30.999c0 26.667 4.16699 49.834 12.5 69.501s19 37.167 32 52.5s26.833 29.333 41.5 42s28.5 25.667 41.5 39s23.667 27.5 32 42.5s12.5 32.5 12.5 52.5c0 27.333 -8.33301 47.333 -25 60s-35.667 19 -57 19c-29.333 0 -51 -8.5 -65 -25.5s-21 -39.5 -21 -67.5
v-12h-138c0 35.333 5.33301 67 16 95s25.834 51.833 45.501 71.5s43.5 34.667 71.5 45s59.667 15.5 95 15.5c28 0 55.333 -4 82 -12s50.334 -20.167 71.001 -36.5s37.334 -37 50.001 -62s19 -54.833 19 -89.5c0 -28.667 -4.33301 -53.5 -13 -74.5s-19.667 -39.667 -33 -56
s-27.666 -31 -42.999 -44s-29.666 -26.167 -42.999 -39.5s-24.333 -27.5 -33 -42.5s-13 -32.5 -13 -52.5v-21h-138z" />
    <glyph glyph-name="at" unicode="@" horiz-adv-x="800" 
d="M542 569l90.0039 -0.00390625l-59 -262c-1.33301 -6.66699 -2.83301 -13.667 -4.5 -21s-2.5 -14.666 -2.5 -21.999c0 -14.667 5.33301 -22 16 -22c14 0 28 4.16699 42 12.5s26.833 20.333 38.5 36s21 34.5 28 56.5s10.5 47 10.5 75c0 42 -7.33301 79 -22 111
s-34.834 59 -60.501 81s-55.834 38.5 -90.501 49.5s-72.334 16.5 -113.001 16.5c-44 0 -83.833 -7.83301 -119.5 -23.5s-66.334 -37.167 -92.001 -64.5s-45.334 -59.666 -59.001 -96.999s-20.5 -77.666 -20.5 -120.999c0 -45.333 7.5 -86.5 22.5 -123.5
s36.167 -68.833 63.5 -95.5s59.666 -47.167 96.999 -61.5s78.666 -21.5 123.999 -21.5c42.667 0 82.334 7.33301 119.001 22s69 34 97 58h92c-36 -52.667 -81.167 -93.5 -135.5 -122.5s-114.166 -43.5 -179.499 -43.5c-60.667 0 -115.834 9.83301 -165.501 29.5
s-92.167 46.834 -127.5 81.501s-62.666 75.834 -81.999 123.501s-29 99.5 -29 155.5c0 55.333 10.5 106.666 31.5 153.999s49.5 88.5 85.5 123.5s78.167 62.5 126.5 82.5s99.833 30 154.5 30c46.667 0 91.834 -7.5 135.501 -22.5s82.334 -36.5 116.001 -64.5
s60.667 -61.667 81 -101s30.5 -83 30.5 -131c0 -36.667 -4.83301 -69.667 -14.5 -99s-22.334 -55 -38.001 -77s-33 -40.833 -52 -56.5s-38.167 -28.5 -57.5 -38.5s-37.666 -17.333 -54.999 -22s-31.666 -7 -42.999 -7c-18 0 -31.833 4.5 -41.5 13.5
s-16.167 19.833 -19.5 32.5h-2c-9.33301 -12.667 -22.333 -23.5 -39 -32.5s-36 -13.5 -58 -13.5c-26 0 -50 4.5 -72 13.5s-40.667 21.5 -56 37.5s-27.333 35 -36 57s-13 46.333 -13 73c0 32 4.83301 63.333 14.5 94s24 58 43 82s42 43.333 69 58s58.167 22 93.5 22
c25.333 0 48.666 -5.5 69.999 -16.5s39.666 -28.833 54.999 -53.5zM498.004 392.996c0 25.333 -7.83203 46.167 -23.499 62.5s-35.834 24.5 -60.501 24.5c-17.333 0 -33 -4.16699 -47 -12.5s-26 -19.333 -36 -33s-17.667 -29 -23 -46s-8 -34.167 -8 -51.5
c0 -23.333 7 -43.5 21 -60.5s33 -25.5 57 -25.5c16.667 0 32.167 4.33301 46.5 13s27 19.667 38 33s19.667 28.5 26 45.5s9.5 33.833 9.5 50.5z" />
    <glyph glyph-name="A" unicode="A" horiz-adv-x="722" 
d="M496 157h-275l-49 -157h-162l274 752h158l270 -752h-165zM360 571h-2l-95 -292h193z" />
    <glyph glyph-name="B" unicode="B" horiz-adv-x="667" 
d="M324 443c36 0 64.833 7.83301 86.5 23.5s32.5 38.5 32.5 68.5c0 31.333 -10.167 54 -30.5 68s-45.5 21 -75.5 21h-104v-181h91zM332 128c47.333 0 80.667 9.16699 100 27.5s29 40.833 29 67.5c0 12 -2 23.833 -6 35.5s-10.667 22.167 -20 31.5s-21.333 16.833 -36 22.5
s-33 8.5 -55 8.5h-111v-193h99zM83.001 752l266.998 -0.00195312c40 0 75.167 -4.83301 105.5 -14.5s55.666 -23.5 75.999 -41.5s35.666 -39.5 45.999 -64.5s15.5 -52.833 15.5 -83.5c0 -20.667 -2.66699 -39.167 -8 -55.5s-12.666 -30.833 -21.999 -43.5
s-20.166 -23.667 -32.499 -33s-25.166 -17 -38.499 -23v-2c16.667 -4 32.5 -10.833 47.5 -20.5s28.333 -21.667 40 -36s20.834 -31.166 27.501 -50.499s10 -40.666 10 -63.999c0 -34.667 -6.33301 -65.5 -19 -92.5s-30.5 -50 -53.5 -69s-50.5 -33.5 -82.5 -43.5
s-67.333 -15 -106 -15h-273v752z" />
    <glyph glyph-name="C" unicode="C" horiz-adv-x="778" 
d="M576 485c-11.333 48.667 -32.332 85.333 -62.999 110s-67.667 37 -111 37c-30.667 0 -58 -6.83301 -82 -20.5s-44.5 -32.167 -61.5 -55.5s-30 -50.666 -39 -81.999s-13.5 -64.333 -13.5 -99c0 -80 18 -142.5 54 -187.5s84.667 -67.5 146 -67.5c18 0 35.667 3 53 9
s33.5 14.667 48.5 26s28.167 25.166 39.5 41.499s20.333 35.166 27 56.499l154 -11c-26 -84.667 -67.833 -148.5 -125.5 -191.5s-125.167 -64.5 -202.5 -64.5c-51.333 0 -98.333 8.5 -141 25.5s-79.5 42 -110.5 75s-55.167 73.667 -72.5 122s-26 104.166 -26 167.499
c0 56.667 8.5 108.834 25.5 156.501s41 88.834 72 123.501s67.833 61.667 110.5 81s90 29 142 29c39.333 0 76.666 -5 111.999 -15s67.333 -26 96 -48s53.167 -50.167 73.5 -84.5s35.5 -75.5 45.5 -123.5z" />
    <glyph glyph-name="D" unicode="D" horiz-adv-x="778" 
d="M360 128c38.667 0 71.333 7.49902 98 22.499s48.5 34.333 65.5 58s29.333 50.334 37 80.001s11.5 59.167 11.5 88.5c0 31.333 -3.66699 61.833 -11 91.5s-19.666 56 -36.999 79s-40.333 41.5 -69 55.5s-64.334 21 -107.001 21h-115v-496h127zM82.999 751.999
l283 0.000976562c56.667 0 107.5 -8.16699 152.5 -24.5s83 -40.5 114 -72.5s54.667 -71.333 71 -118s24.5 -100.334 24.5 -161.001c0 -60 -9.66699 -113.333 -29 -160s-45.333 -86 -78 -118s-70.667 -56.333 -114 -73s-89 -25 -137 -25h-287v752z" />
    <glyph glyph-name="E" unicode="E" horiz-adv-x="611" 
d="M83 752h480v-134h-330v-171h321v-134h-321v-179h330v-134h-480v752z" />
    <glyph glyph-name="F" unicode="F" 
d="M83 752h441v-134h-291v-171h284v-134h-284v-313h-150v752z" />
    <glyph glyph-name="G" unicode="G" horiz-adv-x="833" 
d="M436 405l346.999 0.00195312c-1.33301 -70 -11.5 -131.167 -30.5 -183.5s-44.833 -96 -77.5 -131s-71 -61.167 -115 -78.5s-92 -26 -144 -26c-56 0 -106.5 10.833 -151.5 32.5s-83.333 50.5 -115 86.5s-56.167 77.5 -73.5 124.5s-26 95.833 -26 146.5
s8.66699 99.5 26 146.5s41.833 88.5 73.5 124.5s70 64.833 115 86.5s95.5 32.5 151.5 32.5c62 0 113.333 -8.5 154 -25.5s73.834 -37.5 99.501 -61.5s45.167 -49.5 58.5 -76.5s23.666 -50.5 30.999 -70.5l-157 -10c-13.333 33.333 -34.5 60 -63.5 80s-69.833 30 -122.5 30
c-29.333 0 -56.833 -5.83301 -82.5 -17.5s-48 -28.5 -67 -50.5s-33.833 -48.833 -44.5 -80.5s-16 -67.5 -16 -107.5c0 -34 5.16699 -66.333 15.5 -97s25 -57.834 44 -81.501s42 -42.5 69 -56.5s57.5 -21 91.5 -21c30 0 56.167 4.83301 78.5 14.5s41.333 22.167 57 37.5
s27.834 32.166 36.501 50.499s14.667 36.5 18 54.5h-180v128z" />
    <glyph glyph-name="H" unicode="H" horiz-adv-x="778" 
d="M545 313h-312v-313h-150v752h150v-305h312v305h150v-752h-150v313z" />
    <glyph glyph-name="I" unicode="I" horiz-adv-x="332" 
d="M91 752h150v-752h-150v752z" />
    <glyph glyph-name="J" unicode="J" horiz-adv-x="444" 
d="M24 752h343.998v-496c0 -59.333 -8.16699 -106.333 -24.5 -141s-38.166 -61 -65.499 -79s-58.666 -29.5 -93.999 -34.5s-72 -7.5 -110 -7.5h-48v128h77c18 0 34.167 1.5 48.5 4.5s26.5 8.33301 36.5 16s17.5 18 22.5 31s7.5 29.167 7.5 48.5v396h-194v134z" />
    <glyph glyph-name="K" unicode="K" horiz-adv-x="667" 
d="M476 752h179l-259 -361l264 -391h-187l-238 369h-2v-369h-150v752h150v-353h2z" />
    <glyph glyph-name="L" unicode="L" 
d="M83 752h150v-612h289v-140h-439v752z" />
    <glyph glyph-name="M" unicode="M" horiz-adv-x="944" 
d="M717 502h-2l-201 -502h-84l-201 492h-2v-492h-144v752h171l218 -512l218 512h171v-752h-144v502z" />
    <glyph glyph-name="N" unicode="N" horiz-adv-x="778" 
d="M229 513h-2v-513h-144v752h161l305 -505h2v505h144v-752h-155z" />
    <glyph glyph-name="O" unicode="O" horiz-adv-x="832" 
d="M50 376c0 50.667 8.16699 99.5 24.5 146.5s40 88.5 71 124.5s69.167 64.833 114.5 86.5s97.333 32.5 156 32.5s110.667 -10.833 156 -32.5s83.5 -50.5 114.5 -86.5s54.667 -77.5 71 -124.5s24.5 -95.833 24.5 -146.5s-8.16699 -99.5 -24.5 -146.5s-40 -88.5 -71 -124.5
s-69.167 -64.833 -114.5 -86.5s-97.333 -32.5 -156 -32.5s-110.667 10.833 -156 32.5s-83.5 50.5 -114.5 86.5s-54.667 77.5 -71 124.5s-24.5 95.833 -24.5 146.5zM626 376c0 34 -4.33301 66.333 -13 97s-21.834 57.834 -39.501 81.501s-39.667 42.5 -66 56.5
s-56.833 21 -91.5 21c-35.333 0 -66 -7 -92 -21s-47.833 -32.833 -65.5 -56.5s-30.834 -50.834 -39.501 -81.501s-13 -63 -13 -97s4.33301 -66.333 13 -97s21.834 -57.834 39.501 -81.501s39.5 -42.5 65.5 -56.5s56.667 -21 92 -21c34.667 0 65.167 7 91.5 21
s48.333 32.833 66 56.5s30.834 50.834 39.501 81.501s13 63 13 97z" />
    <glyph glyph-name="P" unicode="P" horiz-adv-x="611" 
d="M83 752h245.002c29.333 0 59.5 -3.83301 90.5 -11.5s59.167 -20.667 84.5 -39s46 -42.833 62 -73.5s24 -69 24 -115c0 -43.333 -7.33301 -80 -22 -110s-33.834 -54.5 -57.501 -73.5s-50.334 -32.833 -80.001 -41.5s-59.5 -13 -89.5 -13h-107v-275h-150v752zM317.002 403
c24.667 0 45 3.33105 61 9.99805s28.5 15.334 37.5 26.001s15.167 22.5 18.5 35.5s5 25.833 5 38.5s-2.33301 25.667 -7 39s-11.834 25.333 -21.501 36s-22.167 19.334 -37.5 26.001s-33.666 10 -54.999 10h-85v-221h84z" />
    <glyph glyph-name="Q" unicode="Q" horiz-adv-x="833" 
d="M521 287l69 -58.999c12 20 21 43 27 69s9 52.333 9 79c0 34 -4.33301 66.333 -13 97s-21.834 57.834 -39.501 81.501s-39.667 42.5 -66 56.5s-56.833 21 -91.5 21c-35.333 0 -66 -7 -92 -21s-47.833 -32.833 -65.5 -56.5s-30.834 -50.834 -39.501 -81.501
s-13 -63 -13 -97s4.33301 -66.333 13 -97s21.834 -57.834 39.501 -81.501s39.5 -42.5 65.5 -56.5s56.667 -21 92 -21c15.333 0 31.333 1.83301 48 5.5s30.334 8.16699 41.001 13.5l-66 58zM616 40.001c-58 -36 -124.667 -54 -200 -54c-58.667 0 -110.667 10.833 -156 32.5
s-83.5 50.5 -114.5 86.5s-54.667 77.5 -71 124.5s-24.5 95.833 -24.5 146.5s8.16699 99.5 24.5 146.5s40 88.5 71 124.5s69.167 64.833 114.5 86.5s97.333 32.5 156 32.5s110.667 -10.833 156 -32.5s83.5 -50.5 114.5 -86.5s54.667 -77.5 71 -124.5
s24.5 -95.833 24.5 -146.5c0 -44.667 -6.66699 -88.5 -20 -131.5s-32.333 -81.5 -57 -115.5l91 -78l-87 -94z" />
    <glyph glyph-name="R" unicode="R" horiz-adv-x="667" 
d="M333 419c26 0 47.3311 3.16895 63.998 9.50195s29.834 14.333 39.501 24s16.334 20.667 20.001 33s5.5 24.5 5.5 36.5c0 13.333 -2 26.166 -6 38.499s-11 23.166 -21 32.499s-23.667 16.833 -41 22.5s-39.333 8.5 -66 8.5h-95v-205h100zM320.998 297.002
l-87.999 -0.000976562v-297h-150v752h281c39.333 0 74.5 -5.83301 105.5 -17.5s57 -27.5 78 -47.5s37 -43.667 48 -71s16.5 -56.666 16.5 -87.999c0 -20 -2.66699 -40.833 -8 -62.5s-13.833 -42.334 -25.5 -62.001s-26.334 -37.167 -44.001 -52.5
s-38.5 -26.666 -62.5 -33.999l175 -317h-179z" />
    <glyph glyph-name="S" unicode="S" horiz-adv-x="667" 
d="M447 554c0 26 -10.8262 46.5039 -32.4932 61.5039s-47.5 22.5 -77.5 22.5c-38 0 -67.5 -7.5 -88.5 -22.5s-31.5 -35.167 -31.5 -60.5c0 -13.333 2.83301 -24.833 8.5 -34.5s12.667 -18 21 -25s17.666 -13 27.999 -18s20.166 -8.83301 29.499 -11.5l138 -44
c24.667 -8 47.5 -17.833 68.5 -29.5s39.167 -25.667 54.5 -42s27.166 -35.666 35.499 -57.999s12.5 -47.833 12.5 -76.5c0 -23.333 -4.5 -48.333 -13.5 -75s-24.167 -51.5 -45.5 -74.5s-49.5 -42.167 -84.5 -57.5s-78.5 -23 -130.5 -23c-43.333 0 -80.5 4.33301 -111.5 13
s-57.167 19.834 -78.5 33.501s-38.166 29.167 -50.499 46.5s-21.833 34.666 -28.5 51.999s-11 34 -13 50s-3 29.667 -3 41l150 3c0 -20 3.66699 -37 11 -51s17.166 -25.5 29.499 -34.5s26.833 -15.5 43.5 -19.5s34 -6 52 -6c12.667 0 26.167 1.66699 40.5 5
s27.666 8.33301 39.999 15s22.5 15.167 30.5 25.5s12 22.833 12 37.5c0 10 -1.33301 19 -4 27s-7.33398 15.333 -14.001 22s-15.834 13.167 -27.501 19.5s-26.834 12.833 -45.501 19.5l-164 59c-20.667 7.33301 -39.667 17.333 -57 30s-32.166 27.167 -44.499 43.5
s-22 34.166 -29 53.499s-10.5 39.666 -10.5 60.999c0 24 4.5 49.667 13.5 77s23.667 52.666 44 75.999s47.166 42.666 80.499 57.999s74.333 23 123 23c58 0 104.667 -8.33301 140 -25s62.5 -36.334 81.5 -59.001s31.667 -45.667 38 -69s9.5 -42 9.5 -56z" />
    <glyph glyph-name="T" unicode="T" horiz-adv-x="610" 
d="M230 618h-198v134h546v-134h-198v-618h-150v618z" />
    <glyph glyph-name="U" unicode="U" horiz-adv-x="778" 
d="M552 752h150.001v-440c0 -58.667 -8.66699 -108.667 -26 -150s-40.333 -75 -69 -101s-62 -45 -100 -57s-77.333 -18 -118 -18c-41.333 0 -80.833 6 -118.5 18s-70.834 31 -99.501 57s-51.667 59.667 -69 101s-26 91.333 -26 150v440h150v-441
c0 -62.667 13.667 -110.167 41 -142.5s68 -48.5 122 -48.5s94.667 16.167 122 48.5s41 79.833 41 142.5v441z" />
    <glyph glyph-name="V" unicode="V" horiz-adv-x="667" 
d="M495 752h162l-244 -752h-158l-245 752h165l161 -553h2z" />
    <glyph glyph-name="W" unicode="W" horiz-adv-x="1000" 
d="M503 524h-2l-124 -524h-159l-194 752h160l117 -553h2l118 553h162l123 -553h2l109 553h159l-192 -752h-159z" />
    <glyph glyph-name="X" unicode="X" horiz-adv-x="667" 
d="M332 253l-144 -253h-180l237 380l-222 372h179l137 -254l136 254h176l-225 -372l233 -380h-185z" />
    <glyph glyph-name="Y" unicode="Y" horiz-adv-x="611" 
d="M436 752h165l-219 -451v-301h-150v301l-222 451h175l123 -289z" />
    <glyph glyph-name="Z" unicode="Z" horiz-adv-x="611" 
d="M36 118l349 500h-325v134h515v-118l-350 -500h350v-134h-539v118z" />
    <glyph glyph-name="bracketleft" unicode="[" horiz-adv-x="333" 
d="M74 782h243v-98h-117v-778h117v-98h-243v974z" />
    <glyph glyph-name="backslash" unicode="\" horiz-adv-x="444" 
d="M20 766h110l294 -780h-110z" />
    <glyph glyph-name="bracketright" unicode="]" horiz-adv-x="333" 
d="M259 -192h-243v98h117v778h-117v98h243v-974z" />
    <glyph glyph-name="asciicircum" unicode="^" horiz-adv-x="600" 
d="M253 740h94l187 -385h-104l-130 280l-130 -280h-104z" />
    <glyph glyph-name="underscore" unicode="_" horiz-adv-x="500" 
d="M0 -75h500v-50h-500v50z" />
    <glyph glyph-name="grave" unicode="`" horiz-adv-x="278" 
d="M24 742h135l88 -140h-83z" />
    <glyph glyph-name="a" unicode="a" horiz-adv-x="611" 
d="M406 67l-1.99805 -0.000976562c-24 -31.333 -51.833 -52.666 -83.5 -63.999s-62.5 -17 -92.5 -17c-20 0 -40.667 2.66699 -62 8s-40.833 14.166 -58.5 26.499s-32 28.5 -43 48.5s-16.5 44.667 -16.5 74c0 14 2 29.5 6 46.5s13.333 33.167 28 48.5s36.667 28.833 66 40.5
s69 19.167 119 22.5l133 8v24c0 30.667 -8.83301 53.5 -26.5 68.5s-42.5 22.5 -74.5 22.5c-30 0 -53.333 -6.83301 -70 -20.5s-25.667 -32.167 -27 -55.5h-138c1.33301 20 6.16602 40.5 14.499 61.5s21.833 40.333 40.5 58s43 32.167 73 43.5s67.667 17 113 17
c32 0 62 -3.16699 90 -9.5s52.667 -16.166 74 -29.499s38.166 -30.5 50.499 -51.5s18.5 -46.167 18.5 -75.5v-298c0 -13.333 0.666992 -25 2 -35s3 -19.667 5 -29h-139v67zM400.002 223.999l-120 -10.999c-33.333 -3.33301 -56.333 -10 -69 -20s-19 -24.333 -19 -43
c0 -11.333 2.5 -20.833 7.5 -28.5s11.5 -13.834 19.5 -18.501s17.5 -8 28.5 -10s22.5 -3 34.5 -3c11.333 0 23.833 1.66699 37.5 5s26.5 8.5 38.5 15.5s22 16 30 27s12 24.167 12 39.5v47z" />
    <glyph glyph-name="b" unicode="b" horiz-adv-x="667" 
d="M78 752h144v-308h2c24 32 48.833 54 74.5 66s55.167 18 88.5 18c36.667 0 69.834 -7.33301 99.501 -22s54.667 -34.5 75 -59.5s36 -53.667 47 -86s16.5 -66.5 16.5 -102.5s-5.83301 -70.333 -17.5 -103s-28 -61.5 -49 -86.5s-46.167 -45 -75.5 -60s-62 -22.5 -98 -22.5
c-33.333 0 -64.333 6.66699 -93 20s-53.334 35.333 -74.001 66h-2v-72h-138v752zM475 254c0 19.333 -2.66602 38.167 -7.99902 56.5s-13.333 34.5 -24 48.5s-23.834 25.333 -39.501 34s-33.834 13 -54.501 13c-22.667 0 -42.167 -4.16699 -58.5 -12.5s-30 -19.5 -41 -33.5
s-19.167 -30 -24.5 -48s-8 -36.667 -8 -56c0 -21.333 2.83301 -41.333 8.5 -60s14 -35 25 -49s24.333 -25 40 -33s33.834 -12 54.501 -12c21.333 0 40 4.16699 56 12.5s29.5 19.5 40.5 33.5s19.333 30.167 25 48.5s8.5 37.5 8.5 57.5z" />
    <glyph glyph-name="c" unicode="c" 
d="M375 317c-0.666992 18 -3.66895 32.8359 -9.00195 44.5029s-11.833 20.667 -19.5 27s-16.334 10.833 -26.001 13.5s-19.167 4 -28.5 4c-22 0 -39.667 -5.16699 -53 -15.5s-23.5 -23.5 -30.5 -39.5s-11.5 -33.333 -13.5 -52s-3 -36.334 -3 -53.001
c0 -17.333 1.66699 -34.5 5 -51.5s8.83301 -32.333 16.5 -46s17.834 -24.834 30.501 -33.501s28.334 -13 47.001 -13c28 0 49.167 7.66699 63.5 23s23.5 35.666 27.5 60.999l141 -5c-5.33301 -28 -13.833 -54 -25.5 -78s-26.667 -44.667 -45 -62s-40.5 -30.833 -66.5 -40.5
s-56.333 -14.5 -91 -14.5c-42 0 -78.833 6.5 -110.5 19.5s-58 31.167 -79 54.5s-36.833 51.333 -47.5 84s-16 68.667 -16 108c0 41.333 5.66699 79 17 113s27.833 63 49.5 87s47.834 42.667 78.501 56s65.667 20 105 20c38 0 71.333 -5.5 100 -16.5s52.5 -26 71.5 -45
s33.5 -40.833 43.5 -65.5s16 -50.667 18 -78z" />
    <glyph glyph-name="d" unicode="d" horiz-adv-x="667" 
d="M451 72h-1.99707c-20.667 -30.667 -45.334 -52.667 -74.001 -66s-59.667 -20 -93 -20c-36 0 -68.667 7.5 -98 22.5s-54.5 35 -75.5 60s-37.333 53.833 -49 86.5s-17.5 67 -17.5 103s5.5 70.167 16.5 102.5s26.667 61 47 86s45.166 44.833 74.499 59.5
s62.666 22 99.999 22c33.333 0 62.833 -6 88.5 -18s50.5 -34 74.5 -66h2v308h144v-752h-138v72zM450.003 256c0 19.333 -2.66602 37.999 -7.99902 55.999s-13.5 34 -24.5 48s-24.667 25.167 -41 33.5s-35.833 12.5 -58.5 12.5c-20.667 0 -38.834 -4.33301 -54.501 -13
s-28.834 -20 -39.501 -34s-18.667 -30.167 -24 -48.5s-8 -37.166 -8 -56.499c0 -20 2.83301 -39.167 8.5 -57.5s14 -34.5 25 -48.5s24.5 -25.167 40.5 -33.5s34.667 -12.5 56 -12.5c20.667 0 38.834 4 54.501 12s29 19 40 33s19.333 30.333 25 49s8.5 38.667 8.5 60z" />
    <glyph glyph-name="e" unicode="e" horiz-adv-x="610" 
d="M424 308c-1.33301 12.667 -4.66992 25.499 -10.0029 38.499s-12.666 24.833 -21.999 35.5s-20.666 19.334 -33.999 26.001s-28.666 10 -45.999 10c-18.667 0 -35 -3 -49 -9s-26 -14 -36 -24s-17.833 -21.667 -23.5 -35s-9.5 -27.333 -11.5 -42h232zM191.996 215.999
c1.33301 -15.333 4.83203 -30.168 10.499 -44.501s13.334 -27 23.001 -38s21.667 -20 36 -27s31.166 -10.5 50.499 -10.5c22 0 42.167 5.16699 60.5 15.5s32.5 25.5 42.5 45.5l140 -11c-17.333 -52.667 -48.166 -92.5 -92.499 -119.5s-96.833 -40.5 -157.5 -40.5
c-38.667 0 -74.167 6.33301 -106.5 19s-60 30.834 -83 54.501s-41 52 -54 85s-19.5 70.167 -19.5 111.5s6.5 78.833 19.5 112.5s31 62.334 54 86.001s50.667 41.834 83 54.501s67.833 19 106.5 19s74.167 -6.33301 106.5 -19s60 -30.834 83 -54.501s41 -52.334 54 -86.001
s19.5 -71.167 19.5 -112.5v-40h-376z" />
    <glyph glyph-name="f" unicode="f" horiz-adv-x="333" 
d="M84 404l-73 0.000976562v110h73v67c0 36 4.33301 65.5 13 88.5s21.5 41 38.5 54s37.833 22 62.5 27s53 7.5 85 7.5h28v-122h-40c-12.667 0 -23 -3.33301 -31 -10s-12 -17.334 -12 -32.001v-80h83v-110h-83v-404h-144v404z" />
    <glyph glyph-name="g" unicode="g" horiz-adv-x="667" 
d="M449 258c0 47.333 -11.332 83.835 -33.999 109.502s-55.334 38.5 -98.001 38.5c-19.333 0 -36.666 -3.66699 -51.999 -11s-28.5 -17.5 -39.5 -30.5s-19.333 -28.167 -25 -45.5s-8.5 -36 -8.5 -56c0 -31.333 4.66699 -56.833 14 -76.5s20.666 -35 33.999 -46
s27.5 -18.667 42.5 -23s28.167 -6.5 39.5 -6.5c9.33301 0 21.166 1.66699 35.499 5s28.333 10.166 42 20.499s25.334 25.166 35.001 44.499s14.5 45 14.5 77zM451.001 514.002l137.996 0.000976562v-506c0 -38.667 -6.66699 -73 -20 -103s-32.166 -55.333 -56.499 -76
s-53.5 -36.334 -87.5 -47.001s-71.333 -16 -112 -16c-74.667 0 -132.667 15.667 -174 47s-66.666 74 -75.999 128h148c6 -19.333 16.5 -35 31.5 -47s39.833 -18 74.5 -18c12.667 0 26.334 1.66699 41.001 5s28.334 9.5 41.001 18.5s23.334 21.5 32.001 37.5s13.667 37 15 63
l4 88l-2 2c-16.667 -36 -39.334 -60.833 -68.001 -74.5s-61.334 -20.5 -98.001 -20.5c-32 0 -62.5 6.16699 -91.5 18.5s-54.5 30 -76.5 53s-39.5 51 -52.5 84s-19.5 70.5 -19.5 112.5c0 36 6 70 18 102s28.833 60.167 50.5 84.5s47.5 43.5 77.5 57.5s63.333 21 100 21
c39.333 0 72.833 -8.83301 100.5 -26.5s47.834 -40.5 60.501 -68.5h2v81z" />
    <glyph glyph-name="h" unicode="h" horiz-adv-x="610" 
d="M397 313c0 18.667 -2.5 34.332 -7.5 46.999s-11.833 22.834 -20.5 30.501s-18.334 13.167 -29.001 16.5s-21.667 5 -33 5c-29.333 0 -52.333 -11.167 -69 -33.5s-25 -51.166 -25 -86.499v-292h-144v752h144v-305h2c20 31.333 42.333 52.666 67 63.999s51 17 79 17
c30.667 0 57.334 -4.66699 80.001 -14s41.5 -22.166 56.5 -38.499s26 -35.333 33 -57s10.5 -44.834 10.5 -69.501v-349h-144v313z" />
    <glyph glyph-name="i" unicode="i" horiz-adv-x="278" 
d="M55 673c0 10.667 2.16602 21 6.49902 31s10.166 19 17.499 27s16.166 14.5 26.499 19.5s21.5 7.5 33.5 7.5c10.667 0 21 -2.16699 31 -6.5s19 -10.333 27 -18s14.333 -16.5 19 -26.5s7 -20.667 7 -32s-2.16699 -22 -6.5 -32s-10.333 -19 -18 -27s-16.667 -14.333 -27 -19
s-21.166 -7 -32.499 -7c-12 0 -23.167 2.5 -33.5 7.5s-19.166 11.333 -26.499 19s-13.166 16.5 -17.499 26.5s-6.5 20 -6.5 30zM66.999 514h144v-514h-144v514z" />
    <glyph glyph-name="j" unicode="j" horiz-adv-x="278" 
d="M55 673c0 10.667 2.16602 21 6.49902 31s10.166 19 17.499 27s16.166 14.5 26.499 19.5s21.5 7.5 33.5 7.5c10.667 0 21 -2.16699 31 -6.5s19 -10.333 27 -18s14.333 -16.5 19 -26.5s7 -20.667 7 -32s-2.16699 -22 -6.5 -32s-10.333 -19 -18 -27s-16.667 -14.333 -27 -19
s-21.166 -7 -32.499 -7c-12 0 -23.167 2.5 -33.5 7.5s-19.166 11.333 -26.499 19s-13.166 16.5 -17.499 26.5s-6.5 20 -6.5 30zM-17.001 -112l38 -0.000976562c11.333 0 21.833 4.33301 31.5 13s14.5 26.334 14.5 53.001v560h144v-566c0 -39.333 -6 -71 -18 -95
s-27 -42.5 -45 -55.5s-37.667 -21.5 -59 -25.5s-41 -6 -59 -6c-7.33301 0 -15 0.333008 -23 1s-16 1 -24 1v120z" />
    <glyph glyph-name="k" unicode="k" 
d="M215 252h-2v-252h-144v752h144v-463h2l155 225h167l-172 -232l179 -282h-177z" />
    <glyph glyph-name="l" unicode="l" horiz-adv-x="278" 
d="M67 752h144v-752h-144v752z" />
    <glyph glyph-name="m" unicode="m" horiz-adv-x="888" 
d="M675 331c0 20 -6.00195 38.498 -18.002 55.498s-31.667 25.5 -59 25.5c-14 0 -26 -2.83301 -36 -8.5s-18.5 -13 -25.5 -22s-12.167 -19 -15.5 -30s-5 -21.5 -5 -31.5v-320h-144v317c0 27.333 -5.5 50 -16.5 68s-31.5 27 -61.5 27c-14.667 0 -27.167 -2.83301 -37.5 -8.5
s-18.666 -13.167 -24.999 -22.5s-11 -20 -14 -32s-4.5 -24.333 -4.5 -37v-312h-144v514h138v-67h2c22.667 34 46.834 56 72.501 66s53.167 15 82.5 15c8.66699 0 19 -0.833008 31 -2.5s24.5 -5.33398 37.5 -11.001s25.5 -13.667 37.5 -24s22.667 -24.5 32 -42.5
c12.667 16.667 25.667 30.334 39 41.001s26.5 18.834 39.5 24.501s25.667 9.5 38 11.5s23.833 3 34.5 3c22 0 43 -3.16699 63 -9.5s37.667 -16.166 53 -29.499s27.5 -30 36.5 -50s13.5 -43.333 13.5 -70v-369h-144v331z" />
    <glyph glyph-name="n" unicode="n" horiz-adv-x="610" 
d="M397 313c0 18.667 -2.49805 34.332 -7.49805 46.999s-11.833 22.834 -20.5 30.501s-18.334 13.167 -29.001 16.5s-21.667 5 -33 5c-29.333 0 -52.333 -11.167 -69 -33.5s-25 -51.166 -25 -86.499v-292h-144v514h138v-67h2c21.333 31.333 44.666 52.666 69.999 63.999
s52.666 17 81.999 17c30.667 0 57.334 -4.66699 80.001 -14s41.5 -22.166 56.5 -38.499s26 -35.333 33 -57s10.5 -44.834 10.5 -69.501v-349h-144v313z" />
    <glyph glyph-name="o" unicode="o" horiz-adv-x="610" 
d="M418 257c0 44.667 -9.33301 81.667 -28 111s-47 44 -85 44s-66.333 -14.667 -85 -44s-28 -66.333 -28 -111s9.33301 -81.667 28 -111s47 -44 85 -44s66.333 14.667 85 44s28 66.333 28 111zM568 257c0 -41.333 -6.5 -78.666 -19.5 -111.999s-31 -61.833 -54 -85.5
s-50.667 -41.834 -83 -54.501s-67.833 -19 -106.5 -19s-74.167 6.33301 -106.5 19s-60 30.834 -83 54.501s-41 52.167 -54 85.5s-19.5 70.666 -19.5 111.999s6.5 78.666 19.5 111.999s31 61.833 54 85.5s50.667 41.834 83 54.501s67.833 19 106.5 19
s74.167 -6.33301 106.5 -19s60 -30.834 83 -54.501s41 -52.167 54 -85.5s19.5 -70.666 19.5 -111.999z" />
    <glyph glyph-name="p" unicode="p" horiz-adv-x="667" 
d="M78 514h138v-72h2c20.667 30.667 45.334 52.667 74.001 66s59.667 20 93 20c36 0 68.667 -7.5 98 -22.5s54.5 -35 75.5 -60s37.333 -53.833 49 -86.5s17.5 -67 17.5 -103s-5.5 -70.167 -16.5 -102.5s-26.667 -61 -47 -86s-45.333 -44.833 -75 -59.5
s-62.834 -22 -99.501 -22c-33.333 0 -62.833 6 -88.5 18s-50.5 34 -74.5 66h-2v-294h-144v738zM475 260c0 20 -2.83398 39.168 -8.50098 57.501s-14 34.5 -25 48.5s-24.5 25.167 -40.5 33.5s-34.667 12.5 -56 12.5c-20.667 0 -38.834 -4 -54.501 -12s-29 -19 -40 -33
s-19.333 -30.333 -25 -49s-8.5 -38.667 -8.5 -60c0 -19.333 2.66699 -38 8 -56s13.5 -34 24.5 -48s24.667 -25.167 41 -33.5s35.833 -12.5 58.5 -12.5c20.667 0 38.834 4.33301 54.501 13s28.834 20 39.501 34s18.667 30.167 24 48.5s8 37.166 8 56.499z" />
    <glyph glyph-name="q" unicode="q" horiz-adv-x="667" 
d="M445 70h-2.00293c-24 -32 -48.833 -54 -74.5 -66s-55.167 -18 -88.5 -18c-37.333 0 -70.666 7.33301 -99.999 22s-54.166 34.5 -74.499 59.5s-36 53.667 -47 86s-16.5 66.5 -16.5 102.5s5.83301 70.333 17.5 103s28 61.5 49 86.5s46.167 45 75.5 60s62 22.5 98 22.5
c33.333 0 64.333 -6.66699 93 -20s53.334 -35.333 74.001 -66h2v72h138v-738h-144v294zM449.997 258c0 21.333 -2.83398 41.332 -8.50098 59.999s-14 35 -25 49s-24.333 25 -40 33s-33.834 12 -54.501 12c-21.333 0 -40 -4.16699 -56 -12.5s-29.5 -19.5 -40.5 -33.5
s-19.333 -30.167 -25 -48.5s-8.5 -37.5 -8.5 -57.5c0 -19.333 2.66699 -38.166 8 -56.499s13.333 -34.5 24 -48.5s23.834 -25.333 39.501 -34s33.834 -13 54.501 -13c22.667 0 42.167 4.16699 58.5 12.5s30 19.5 41 33.5s19.167 30 24.5 48s8 36.667 8 56z" />
    <glyph glyph-name="r" unicode="r" horiz-adv-x="389" 
d="M69 514h138v-99h2c13.333 36.667 32.833 64.667 58.5 84s55.5 29 89.5 29h20v-140h-32c-18.667 0 -36 -2.83301 -52 -8.5s-30 -14.167 -42 -25.5s-21.333 -25.5 -28 -42.5s-10 -36.833 -10 -59.5v-252h-144v514z" />
    <glyph glyph-name="s" unicode="s" 
d="M353 355c-1.33301 21.333 -9.32812 38.166 -23.9951 50.499s-36 18.5 -64 18.5c-19.333 0 -36.833 -3.83301 -52.5 -11.5s-23.5 -19.167 -23.5 -34.5s7.83301 -26.666 23.5 -33.999s35.5 -13.333 59.5 -18l77 -14.5c27.333 -5 53 -13.167 77 -24.5s43.833 -27 59.5 -47
s23.5 -47.333 23.5 -82c0 -10 -2.33301 -24.667 -7 -44s-15 -38.5 -31 -57.5s-39.5 -35.5 -70.5 -49.5s-72.833 -21 -125.5 -21c-18 0 -39.5 2 -64.5 6s-49 12 -72 24s-43.333 29.5 -61 52.5s-27.834 53.5 -30.501 91.5h144c0.666992 -12.667 3.66699 -23.334 9 -32.001
s12.166 -15.834 20.499 -21.501s17.666 -9.83398 27.999 -12.501s20.833 -4 31.5 -4c9.33301 0 19 0.833008 29 2.5s19.167 4.5 27.5 8.5s15.166 9.33301 20.499 16s8 15.334 8 26.001c0 14 -7.66699 24.333 -23 31s-34.333 12.334 -57 17.001l-74 15
c-26.667 5.33301 -51.334 13.666 -74.001 24.999s-41.667 27.333 -57 48s-23 48.667 -23 84c0 20 4 39.833 12 59.5s20.5 37.334 37.5 53.001s39 28.334 66 38.001s59.5 14.5 97.5 14.5c66 0 119.333 -14.333 160 -43s63 -71 67 -127z" />
    <glyph glyph-name="t" unicode="t" horiz-adv-x="333" 
d="M18 514h66v148h144v-148h76v-110h-76v-260c0 -11.333 3.16699 -19.833 9.5 -25.5s18.833 -8.5 37.5 -8.5c6 0 11.167 0.166992 15.5 0.5s8.83301 1.16602 13.5 2.49902v-113l-34.5 -4c-11.667 -1.33301 -23.167 -2 -34.5 -2c-23.333 0 -44.333 1.83301 -63 5.5
s-34.5 10.334 -47.5 20.001s-23 23.167 -30 40.5s-10.5 40 -10.5 68v276h-66v110z" />
    <glyph glyph-name="u" unicode="u" horiz-adv-x="610" 
d="M403 67l-2.00391 0.00195312c-21.333 -31.333 -44.666 -52.666 -69.999 -63.999s-52.666 -17 -81.999 -17c-31.333 0 -58.166 4.66699 -80.499 14s-41 22.166 -56 38.499s-26 35.333 -33 57s-10.5 44.834 -10.5 69.501v349h144v-313c0 -18.667 2.5 -34.334 7.5 -47.001
s11.833 -22.834 20.5 -30.501s18.334 -13.167 29.001 -16.5s21.667 -5 33 -5c29.333 0 52.333 11.167 69 33.5s25 51.166 25 86.499v292h144v-514h-138v67z" />
    <glyph glyph-name="v" unicode="v" 
d="M10 514h158l109 -340h2l109 340h158l-193 -514h-150z" />
    <glyph glyph-name="w" unicode="w" horiz-adv-x="832" 
d="M417 341h-2l-90 -341h-151l-164 514h153l85 -350h2l91 350h150l91 -350h2l85 350h153l-164 -514h-151z" />
    <glyph glyph-name="x" unicode="x" 
d="M273 147l-87 -147h-176l180 257l-176 257h181l82 -142l87 142h177l-180 -252l185 -262h-182z" />
    <glyph glyph-name="y" unicode="y" 
d="M203 0l-193 514h158l109 -340h2l109 340h158l-278 -738h-151z" />
    <glyph glyph-name="z" unicode="z" horiz-adv-x="500" 
d="M33 104l251 294h-237v116h420v-104l-248 -294h248v-116h-434v104z" />
    <glyph glyph-name="braceleft" unicode="{" horiz-adv-x="333" 
d="M100 647c0 22.667 4.33301 42.502 13 59.502s19.667 31 33 42s27.833 19.333 43.5 25s30.5 8.5 44.5 8.5h89v-92h-43c-24 0 -39 -7.5 -45 -22.5s-9 -33.833 -9 -56.5v-204c0 -21.333 -3.83301 -38.833 -11.5 -52.5s-17.167 -24.667 -28.5 -33s-23.333 -14.5 -36 -18.5
s-24.334 -6.33301 -35.001 -7v-2c10.667 -1.33301 22.334 -3.83301 35.001 -7.5s24.667 -9.66699 36 -18s20.833 -19.5 28.5 -33.5s11.5 -31.333 11.5 -52v-204c0 -22.667 3 -41.5 9 -56.5s21 -22.5 45 -22.5h43v-92h-89c-14 0 -28.833 2.83301 -44.5 8.5
s-30.167 14 -43.5 25s-24.333 25 -33 42s-13 36.833 -13 59.5v226c0 15.333 -2.66699 28.166 -8 38.499s-12.166 18.5 -20.499 24.5s-17.166 10.333 -26.499 13s-18 4 -26 4v92c8 0 16.667 1.33301 26 4s18.166 7 26.499 13s15.166 14.167 20.499 24.5s8 23.166 8 38.499
v226z" />
    <glyph glyph-name="bar" unicode="|" horiz-adv-x="222" 
d="M59 766h104v-780h-104v780z" />
    <glyph glyph-name="braceright" unicode="}" horiz-adv-x="333" 
d="M233 -57c0 -22.667 -4.33301 -42.502 -13 -59.502s-19.667 -31 -33 -42s-27.833 -19.333 -43.5 -25s-30.5 -8.5 -44.5 -8.5h-89v92h43c24 0 39 7.5 45 22.5s9 33.833 9 56.5v204c0 20.667 3.83301 38 11.5 52s17.167 25.167 28.5 33.5s23.333 14.333 36 18
s24.334 6.16699 35.001 7.5v2c-10.667 0.666992 -22.334 3 -35.001 7s-24.667 10.167 -36 18.5s-20.833 19.333 -28.5 33s-11.5 31.167 -11.5 52.5v204c0 22.667 -3 41.5 -9 56.5s-21 22.5 -45 22.5h-43v92h89c14 0 28.833 -2.83301 44.5 -8.5s30.167 -14 43.5 -25
s24.333 -25 33 -42s13 -36.833 13 -59.5v-226c0 -15.333 2.66699 -28.166 8 -38.499s12.166 -18.5 20.499 -24.5s17.166 -10.333 26.499 -13s18 -4 26 -4v-92c-8 0 -16.667 -1.33301 -26 -4s-18.166 -7 -26.499 -13s-15.166 -14.167 -20.499 -24.5s-8 -23.166 -8 -38.499
v-226z" />
    <glyph glyph-name="asciitilde" unicode="~" horiz-adv-x="600" 
d="M531 257c-7.33301 -10.667 -15.166 -21.165 -23.499 -31.498s-17.333 -19.5 -27 -27.5s-20.667 -14.5 -33 -19.5s-26.166 -7.5 -41.499 -7.5c-23.333 0 -42.333 3.5 -57 10.5l-47 23.5c-16.667 8.66699 -33.167 16.5 -49.5 23.5s-37.5 10.5 -63.5 10.5
c-22 0 -39.5 -7.66699 -52.5 -23s-23.5 -32 -31.5 -50l-36 83c5.33301 10.667 11.833 21.167 19.5 31.5s16.5 19.666 26.5 27.999s21.5 15.166 34.5 20.499s27.833 8 44.5 8c23.333 0 43.166 -3.5 59.499 -10.5s34.166 -15.167 53.499 -24.5
c19.333 -8.66699 36 -16.667 50 -24s30.667 -11 50 -11c20 0 36.833 7.66699 50.5 23s26.167 32 37.5 50z" />
    <glyph glyph-name="exclamdown" unicode="&#xa1;" horiz-adv-x="332" 
d="M82 470c0 23.333 8.16699 43.166 24.5 59.499s36.166 24.5 59.499 24.5s43.166 -8.16699 59.499 -24.5s24.5 -36.166 24.5 -59.499s-8.16699 -43.166 -24.5 -59.499s-36.166 -24.5 -59.499 -24.5s-43.166 8.16699 -59.499 24.5s-24.5 36.166 -24.5 59.499zM94 306h144
v-516h-144v516z" />
    <glyph glyph-name="cent" unicode="&#xa2;" 
d="M259 -12c-37.333 3.33301 -69.8369 12.001 -97.5039 26.001s-50.667 32.5 -69 55.5s-32.166 50 -41.499 81s-14 64.833 -14 101.5c0 38.667 5 74.334 15 107.001s24.5 61 43.5 85s42.333 43.167 70 57.5s58.834 23.166 93.501 26.499v95h54v-95
c34 -2.66699 63.5 -10 88.5 -22s46 -27.333 63 -46s30 -39.834 39 -63.501s14.167 -48.167 15.5 -73.5l-150 -6c-1.33301 28 -7.33301 48.833 -18 62.5s-23.334 22.5 -38.001 26.5v-300c18.667 4 33 13.167 43 27.5s16.667 31.833 20 52.5l141 -5
c-5.33301 -26.667 -13.166 -51.5 -23.499 -74.5s-23.666 -43 -39.999 -60s-36.166 -30.5 -59.499 -40.5s-50.333 -16 -81 -18v-98h-54v98zM258.996 406.001c-16 -4.66699 -28.666 -12.998 -37.999 -24.998s-16.5 -25.5 -21.5 -40.5s-8.33301 -30.833 -10 -47.5
s-2.5 -32.334 -2.5 -47.001s1.16699 -29.5 3.5 -44.5s6.33301 -28.833 12 -41.5s13.167 -23.834 22.5 -33.501s20.666 -16.5 33.999 -20.5v300z" />
    <glyph glyph-name="sterling" unicode="&#xa3;" 
d="M31 400h70.999c-2 2.66699 -5.5 8.5 -10.5 17.5s-10 20.333 -15 34s-9.33301 28.834 -13 45.501s-5.5 33.667 -5.5 51c0 24 4.16699 48.167 12.5 72.5s21.5 46.166 39.5 65.499s40.833 35.166 68.5 47.499s60.834 18.5 99.501 18.5s72 -4.83301 100 -14.5
s51.5 -23.5 70.5 -41.5s34 -40 45 -66s18.833 -55.333 23.5 -88h-147c-0.666992 25.333 -7.83398 46.333 -21.501 63s-34.5 25 -62.5 25c-18 0 -32.5 -2.83301 -43.5 -8.5s-19.5 -12.834 -25.5 -21.501s-10 -18 -12 -28s-3 -19.333 -3 -28c0 -22 5.66699 -45.5 17 -70.5
s23 -49.5 35 -73.5h152v-62h-133c2 -9.33301 3.5 -17.666 4.5 -24.999s1.5 -17.333 1.5 -30s-1.33301 -25.167 -4 -37.5s-7.33398 -25 -14.001 -38s-15.834 -26.5 -27.501 -40.5s-26.5 -29 -44.5 -45l2 -2c9.33301 2 17 3.83301 23 5.5s11 2.83398 15 3.50098
s7.83301 1.16699 11.5 1.5s7.5 0.5 11.5 0.5c8.66699 0 19.334 -1.16699 32.001 -3.5l38.5 -7c13 -2.33301 25.167 -4.66602 36.5 -6.99902s19.666 -3.5 24.999 -3.5c16.667 0 33.334 2.16699 50.001 6.5s36 15.5 58 33.5l34 -121c-26.667 -15.333 -50.667 -26 -72 -32
s-41 -9 -59 -9c-16.667 0 -33.167 2 -49.5 6s-32.5 8.5 -48.5 13.5s-32 9.5 -48 13.5s-31.667 6 -47 6c-10.667 0 -27.167 -2.33301 -49.5 -7s-46.166 -15.334 -71.499 -32.001l-51 108c14.667 8 29.167 16.667 43.5 26s26.833 20 37.5 32s19.334 25.667 26.001 41
s10 33 10 53c0 19.333 -2 36.333 -6 51l-11 39h-99v62z" />
    <glyph glyph-name="currency" unicode="&#xa4;" 
d="M134 370c0 -20 3.66699 -38.833 11 -56.5s17.5 -33 30.5 -46s28.333 -23.167 46 -30.5s36.5 -11 56.5 -11s38.667 3.66699 56 11s32.5 17.5 45.5 30.5s23.333 28.333 31 46s11.5 36.5 11.5 56.5s-3.83301 38.667 -11.5 56s-18 32.5 -31 45.5s-28.167 23.333 -45.5 31
s-36 11.5 -56 11.5s-38.833 -3.83301 -56.5 -11.5s-33 -18 -46 -31s-23.167 -28.167 -30.5 -45.5s-11 -36 -11 -56zM78 227c-16.667 16.667 -28.834 37.834 -36.501 63.501s-11.5 52.167 -11.5 79.5s3.83301 53.833 11.5 79.5s19.834 46.834 36.501 63.501l-57 58l57 56
l57 -55c16.667 14 38 25.167 64 33.5s52.333 12.5 79 12.5s53 -4.16699 79 -12.5s47.333 -19.5 64 -33.5l57 55l57 -56l-57 -58c16.667 -16.667 28.834 -37.834 36.501 -63.501s11.5 -52.167 11.5 -79.5s-3.83301 -53.833 -11.5 -79.5s-19.834 -46.834 -36.501 -63.501
l57 -58l-57 -56l-57 55c-16.667 -14 -38 -25.167 -64 -33.5s-52.333 -12.5 -79 -12.5s-53 4.16699 -79 12.5s-47.333 19.5 -64 33.5l-57 -55l-57 56z" />
    <glyph glyph-name="yen" unicode="&#xa5;" 
d="M72 241h143v57l-5 12h-138v86h99l-156 344h153l110 -284l119 284h144l-156 -344h99v-86h-138l-5 -12v-57h143v-86h-143v-155h-126v155h-143v86z" />
    <glyph glyph-name="brokenbar" unicode="&#xa6;" horiz-adv-x="222" 
d="M59 766h104v-292h-104v292zM59 278h104v-292h-104v292z" />
    <glyph glyph-name="section" unicode="&#xa7;" 
d="M371 272c0 68 -32.333 102 -97 102c-11.333 0 -22.333 -2 -33 -6s-20.167 -10 -28.5 -18s-15 -18 -20 -30s-7.5 -26.333 -7.5 -43c0 -35.333 8.66699 -60.5 26 -75.5s40.333 -22.5 69 -22.5c31.333 0 54.333 9.5 69 28.5s22 40.5 22 64.5zM203 -36
c3.33301 -22.667 10.334 -40.0039 21.001 -52.0039c12 -13.333 28.333 -20 49 -20c20 0 37.167 5.16699 51.5 15.5s21.5 27.833 21.5 52.5c0 24 -7.5 42.667 -22.5 56s-33.833 24.5 -56.5 33.5s-47.167 17.667 -73.5 26s-50.833 20 -73.5 35s-41.5 34.833 -56.5 59.5
s-22.5 58 -22.5 100c0 40 9.5 74.833 28.5 104.5s46.167 51.834 81.5 66.501c-26.667 16 -46 34.833 -58 56.5s-18 48.834 -18 81.501c0 14 2.5 31.5 7.5 52.5s15 41.5 30 61.5s36 37.167 63 51.5s62.5 21.5 106.5 21.5c36 0 66.833 -5.16699 92.5 -15.5
s46.667 -24.333 63 -42s28.5 -38 36.5 -61s12.667 -47.167 14 -72.5h-138c-0.666992 24.667 -7.66699 43.667 -21 57c-12 12 -29 18 -51 18c-17.333 0 -32.5 -5.5 -45.5 -16.5s-19.5 -26.167 -19.5 -45.5c0 -21.333 7.5 -38 22.5 -50s33.667 -22.5 56 -31.5
s46.5 -18 72.5 -27s50.167 -21.167 72.5 -36.5s41 -35.5 56 -60.5s22.5 -57.5 22.5 -97.5c0 -15.333 -1.66699 -31 -5 -47s-9 -31.333 -17 -46s-19 -28.667 -33 -42s-31.333 -25 -52 -35c28.667 -15.333 48.5 -35.666 59.5 -60.999s16.5 -53.333 16.5 -84
c0 -25.333 -4.33301 -49.666 -13 -72.999s-21.667 -44 -39 -62s-39.333 -32.333 -66 -43s-58.334 -16 -95.001 -16c-62.667 0 -111.167 15.167 -145.5 45.5s-54.5 77.833 -60.5 142.5h138z" />
    <glyph glyph-name="dieresis" unicode="&#xa8;" horiz-adv-x="278" 
d="M246 752c20.667 0 38.334 -7.33301 53.001 -22s22 -32.334 22 -53.001s-7.33301 -38.334 -22 -53.001s-32.334 -22 -53.001 -22s-38.334 7.33301 -53.001 22s-22 32.334 -22 53.001s7.33301 38.334 22 53.001s32.334 22 53.001 22zM32 752
c20.667 0 38.334 -7.33301 53.001 -22s22 -32.334 22 -53.001s-7.33301 -38.334 -22 -53.001s-32.334 -22 -53.001 -22s-38.334 7.33301 -53.001 22s-22 32.334 -22 53.001s7.33301 38.334 22 53.001s32.334 22 53.001 22z" />
    <glyph glyph-name="copyright" unicode="&#xa9;" horiz-adv-x="800" 
d="M10 376c0 54 10.167 104.667 30.5 152s48.166 88.666 83.499 123.999s76.666 63.166 123.999 83.499s98 30.5 152 30.5s104.667 -10.167 152 -30.5s88.666 -48.166 123.999 -83.499s63.166 -76.666 83.499 -123.999s30.5 -98 30.5 -152s-10.167 -104.667 -30.5 -152
s-48.166 -88.666 -83.499 -123.999s-76.666 -63.166 -123.999 -83.499s-98 -30.5 -152 -30.5s-104.667 10.167 -152 30.5s-88.666 48.166 -123.999 83.499s-63.166 76.666 -83.499 123.999s-30.5 98 -30.5 152zM604 313c-4 -26 -11.668 -49.167 -23.001 -69.5
s-25.5 -37.5 -42.5 -51.5s-36 -24.5 -57 -31.5s-43.167 -10.5 -66.5 -10.5c-33.333 0 -63.666 5.83301 -90.999 17.5s-50.5 27.834 -69.5 48.501s-33.667 45 -44 73s-15.5 58 -15.5 90c0 32.667 5 63 15 91s24.333 52.333 43 73s41.5 36.667 68.5 48s57.5 17 91.5 17
c24 0 46.5 -3.5 67.5 -10.5s39.833 -17.167 56.5 -30.5s30.334 -30 41.001 -50s18 -43.333 22 -70h-92c-5.33301 25.333 -17.333 44.166 -36 56.499s-40.334 18.5 -65.001 18.5c-37.333 0 -65.666 -13.167 -84.999 -39.5s-29 -60.5 -29 -102.5
c0 -20 2.83301 -38.833 8.5 -56.5s13.5 -33 23.5 -46s22.167 -23.167 36.5 -30.5s30.166 -11 47.499 -11c27.333 0 50 6.5 68 19.5s28.333 32.167 31 57.5h96zM685.999 376c0 44.667 -7.66699 85.5 -23 122.5s-36 69 -62 96s-56.333 48 -91 63s-71.334 22.5 -110.001 22.5
c-39.333 0 -76.333 -7.5 -111 -22.5s-65 -36 -91 -63s-46.5 -59 -61.5 -96s-22.5 -77.833 -22.5 -122.5s7.5 -85.667 22.5 -123s35.5 -69.333 61.5 -96s56.333 -47.5 91 -62.5s71.667 -22.5 111 -22.5c38.667 0 75.334 7.5 110.001 22.5s65 35.833 91 62.5
s46.667 58.667 62 96s23 78.333 23 123z" />
    <glyph glyph-name="ordfeminine" unicode="&#xaa;" horiz-adv-x="396" 
d="M247 489l-2 0.00390625c-9.33301 -19.333 -23.666 -32.166 -42.999 -38.499s-38.666 -9.5 -57.999 -9.5c-13.333 0 -26.833 1.66699 -40.5 5s-26.167 8.83301 -37.5 16.5s-20.666 18 -27.999 31s-11 29.167 -11 48.5c0 16 3.5 29.667 10.5 41s15.833 20.666 26.5 27.999
s22.667 12.666 36 15.999s26.666 5.66602 39.999 6.99902l101 7v9c0 12 -5 22 -15 30s-23.333 12 -40 12c-14.667 0 -26.834 -3.83301 -36.501 -11.5s-15.167 -17.167 -16.5 -28.5h-96c1.33301 21.333 6.66602 39.166 15.999 53.499s21.333 26.166 36 35.499
s31 15.833 49 19.5s36.667 5.5 56 5.5c20.667 0 40.167 -1.83301 58.5 -5.5s34.333 -9.5 48 -17.5s24.5 -18.333 32.5 -31s12 -28 12 -46v-179c0 -8 0.5 -15 1.5 -21s2.16699 -11.667 3.5 -17h-103v40zM241 580.004l-60.001 -5c-21.333 -2 -35 -6.16699 -41 -12.5
s-9 -11.166 -9 -14.499c0 -12.667 5.16699 -21.334 15.5 -26.001s19.5 -7 27.5 -7c4.66699 0 10.834 1 18.501 3s15 5 22 9s13.167 9.33301 18.5 16s8 14.667 8 24v13z" />
    <glyph glyph-name="guillemotleft" unicode="&#xab;" 
d="M173 444h110l-110 -182l105 -182h-110l-103 182zM381 444h110l-110 -182l105 -182h-110l-103 182z" />
    <glyph glyph-name="logicalnot" unicode="&#xac;" horiz-adv-x="600" 
d="M449 310h-402v104h506v-306h-104v202z" />
    <glyph glyph-name="registered" unicode="&#xae;" horiz-adv-x="800" 
d="M417 410c22 0 40.167 3.66699 54.5 11s21.5 24 21.5 50c0 12 -2.66699 21.667 -8 29s-12.333 13 -21 17s-18 6.5 -28 7.5s-19.667 1.5 -29 1.5h-77v-116h87zM381 344h-51.001v-183h-86v431h163c55.333 0 97.833 -9.33301 127.5 -28s44.5 -52.334 44.5 -101.001
c0 -39.333 -10.667 -67.666 -32 -84.999s-48.666 -27.333 -81.999 -30l114 -187h-95zM685.999 376c0 44.667 -7.66699 85.5 -23 122.5s-36 69 -62 96s-56.333 48 -91 63s-71.334 22.5 -110.001 22.5c-39.333 0 -76.333 -7.5 -111 -22.5s-65 -36 -91 -63s-46.5 -59 -61.5 -96
s-22.5 -77.833 -22.5 -122.5s7.5 -85.667 22.5 -123s35.5 -69.333 61.5 -96s56.333 -47.5 91 -62.5s71.667 -22.5 111 -22.5c38.667 0 75.334 7.5 110.001 22.5s65 35.833 91 62.5s46.667 58.667 62 96s23 78.333 23 123zM9.99902 376c0 54 10.167 104.667 30.5 152
s48.166 88.666 83.499 123.999s76.666 63.166 123.999 83.499s98 30.5 152 30.5s104.667 -10.167 152 -30.5s88.666 -48.166 123.999 -83.499s63.166 -76.666 83.499 -123.999s30.5 -98 30.5 -152s-10.167 -104.667 -30.5 -152s-48.166 -88.666 -83.499 -123.999
s-76.666 -63.166 -123.999 -83.499s-98 -30.5 -152 -30.5s-104.667 10.167 -152 30.5s-88.666 48.166 -123.999 83.499s-63.166 76.666 -83.499 123.999s-30.5 98 -30.5 152z" />
    <glyph glyph-name="macron" unicode="&#xaf;" horiz-adv-x="278" 
d="M-6 691h290v-66h-290v66z" />
    <glyph glyph-name="macron" unicode="&#x2c9;" horiz-adv-x="278" 
d="M-6 691h290v-66h-290v66z" />
    <glyph glyph-name="degree" unicode="&#xb0;" horiz-adv-x="400" 
d="M123 609c0 -21.333 7.5 -39.5 22.5 -54.5s33.167 -22.5 54.5 -22.5s39.5 7.5 54.5 22.5s22.5 33.167 22.5 54.5s-7.5 39.5 -22.5 54.5s-33.167 22.5 -54.5 22.5s-39.5 -7.5 -54.5 -22.5s-22.5 -33.167 -22.5 -54.5zM57 609c0 20 3.66699 38.667 11 56
s17.5 32.5 30.5 45.5s28.167 23.167 45.5 30.5s36 11 56 11s38.667 -3.66699 56 -11s32.5 -17.5 45.5 -30.5s23.167 -28.167 30.5 -45.5s11 -36 11 -56s-3.66699 -38.667 -11 -56s-17.5 -32.5 -30.5 -45.5s-28.167 -23.167 -45.5 -30.5s-36 -11 -56 -11
s-38.667 3.66699 -56 11s-32.5 17.5 -45.5 30.5s-23.167 28.167 -30.5 45.5s-11 36 -11 56z" />
    <glyph glyph-name="plusminus" unicode="&#xb1;" horiz-adv-x="600" 
d="M47 104h506v-104h-506v104zM248 506h104v-132h201v-104h-201v-133h-104v133h-201v104h201v132z" />
    <glyph glyph-name="twosuperior" unicode="&#xb2;" horiz-adv-x="361" 
d="M20 368l131.995 134.001c18.667 18.667 33.334 33.834 44.001 45.501s18.5 21.5 23.5 29.5s8.16699 15.333 9.5 22s2 14.667 2 24c0 12.667 -4.16699 23 -12.5 31s-21.166 12 -38.499 12s-31.166 -5.66699 -41.499 -17s-15.5 -29.333 -15.5 -54h-96
c0 32 5.33301 58.333 16 79s23.834 36.667 39.501 48s32.5 19.166 50.5 23.499s34.333 6.5 49 6.5c22.667 0 43.334 -3.16699 62.001 -9.5s34.667 -15.333 48 -27s23.833 -25.334 31.5 -41.001s11.5 -32.5 11.5 -50.5c0 -14 -1.66699 -27.333 -5 -40
s-9.16602 -25.5 -17.499 -38.5s-19.333 -26.667 -33 -41s-30.834 -30.833 -51.501 -49.5l-75 -69h188v-86h-321v68z" />
    <glyph glyph-name="threesuperior" unicode="&#xb3;" horiz-adv-x="361" 
d="M109 576l91.998 90h-169v86h285v-79l-101 -99c40 0 71.667 -12 95 -36s35 -54.333 35 -91c0 -21.333 -4.16699 -41 -12.5 -59s-20.166 -33.5 -35.499 -46.5s-33.666 -23.167 -54.999 -30.5s-45 -11 -71 -11c-15.333 0 -31.666 1.83301 -48.999 5.5
s-33.833 10.5 -49.5 20.5s-28.834 23.333 -39.501 40s-17 38 -19 64l104 8c0.666992 -12 3.33398 -21.5 8.00098 -28.5s10 -12.333 16 -16s12 -5.83398 18 -6.50098s10.667 -1 14 -1c17.333 0 31.833 6.33301 43.5 19s17.5 27.334 17.5 44.001
c0 18.667 -5.83301 33.167 -17.5 43.5s-28.167 15.5 -49.5 15.5c-12 0 -23.333 -1.66699 -34 -5s-19.334 -6.33301 -26.001 -9v82z" />
    <glyph glyph-name="acute" unicode="&#xb4;" horiz-adv-x="278" 
d="M119 742h135l-140 -140h-83z" />
    <glyph glyph-name="mu" unicode="&#xb5;" horiz-adv-x="610" 
d="M403 67l-2.00098 0.00195312c-21.333 -31.333 -41.5 -52.666 -60.5 -63.999s-38.5 -17 -58.5 -17c-15.333 0 -28.833 2.66699 -40.5 8s-20.5 13.333 -26.5 24h-2v-242h-144v738h144v-313c0 -18.667 2.5 -34.334 7.5 -47.001s11.833 -22.834 20.5 -30.501
s18.334 -13.167 29.001 -16.5s21.667 -5 33 -5c29.333 0 52.333 11.167 69 33.5s25 51.166 25 86.499v292h144v-514h-138v67z" />
    <glyph glyph-name="mu" unicode="&#x3bc;" horiz-adv-x="610" 
d="M403 67l-2.00098 0.00195312c-21.333 -31.333 -41.5 -52.666 -60.5 -63.999s-38.5 -17 -58.5 -17c-15.333 0 -28.833 2.66699 -40.5 8s-20.5 13.333 -26.5 24h-2v-242h-144v738h144v-313c0 -18.667 2.5 -34.334 7.5 -47.001s11.833 -22.834 20.5 -30.501
s18.334 -13.167 29.001 -16.5s21.667 -5 33 -5c29.333 0 52.333 11.167 69 33.5s25 51.166 25 86.499v292h144v-514h-138v67z" />
    <glyph glyph-name="paragraph" unicode="&#xb6;" horiz-adv-x="620" 
d="M435 666h-105.999v-876h-104v580c-70 0 -124 16.333 -162 49s-57 79 -57 139c0 38 6 69.5 18 94.5s28.667 44.833 50 59.5s46.666 25 75.999 31s61.333 9 96 9h293v-962h-104v876z" />
    <glyph glyph-name="periodcentered" unicode="&#xb7;" horiz-adv-x="278" 
d="M55 296c0 23.333 8.16699 43.166 24.5 59.499s36.166 24.5 59.499 24.5s43.166 -8.16699 59.499 -24.5s24.5 -36.166 24.5 -59.499s-8.16699 -43.166 -24.5 -59.499s-36.166 -24.5 -59.499 -24.5s-43.166 8.16699 -59.499 24.5s-24.5 36.166 -24.5 59.499z" />
    <glyph glyph-name="periodcentered" unicode="&#x2219;" horiz-adv-x="278" 
d="M55 296c0 23.333 8.16699 43.166 24.5 59.499s36.166 24.5 59.499 24.5s43.166 -8.16699 59.499 -24.5s24.5 -36.166 24.5 -59.499s-8.16699 -43.166 -24.5 -59.499s-36.166 -24.5 -59.499 -24.5s-43.166 8.16699 -59.499 24.5s-24.5 36.166 -24.5 59.499z" />
    <glyph glyph-name="cedilla" unicode="&#xb8;" horiz-adv-x="278" 
d="M58 -88l66.001 94h68l-38 -52l2 -2c4 0.666992 8.16699 1.16699 12.5 1.5s9.16602 0.5 14.499 0.5c22.667 0 41.5 -7.83301 56.5 -23.5s22.5 -36.834 22.5 -63.501c0 -30.667 -11.167 -55.167 -33.5 -73.5s-51.833 -27.5 -88.5 -27.5c-28 0 -52.5 3 -73.5 9
s-36.167 11.667 -45.5 17l19 53c14 -6 26.5 -10.5 37.5 -13.5s22.167 -4.5 33.5 -4.5c5.33301 0 11.166 0.333008 17.499 1s12.333 2.33398 18 5.00098s10.334 6.5 14.001 11.5s5.5 11.833 5.5 20.5s-3.33301 17 -10 25s-18.667 12 -36 12c-18 0 -31.333 -3 -40 -9z" />
    <glyph glyph-name="onesuperior" unicode="&#xb9;" horiz-adv-x="361" 
d="M141 632c-9.33301 -7.33301 -22.5 -15.832 -39.5 -25.499s-37.167 -19.167 -60.5 -28.5v87l28 14c10.667 5.33301 22 11.666 34 18.999s23.833 15.5 35.5 24.5s22.5 18.833 32.5 29.5h74v-452h-104v332z" />
    <glyph glyph-name="ordmasculine" unicode="&#xba;" horiz-adv-x="396" 
d="M259 604c0 29.333 -6 50.333 -18 63s-26.333 19 -43 19c-16 0 -30.167 -6.33301 -42.5 -19s-18.5 -33.667 -18.5 -63s6.16699 -50.5 18.5 -63.5s26.5 -19.5 42.5 -19.5c16.667 0 31 6.5 43 19.5s18 34.167 18 63.5zM27 603c0 24.667 4.16699 47 12.5 67
s20.166 37.167 35.499 51.5s33.333 25.333 54 33s43.667 11.5 69 11.5s48.5 -3.83301 69.5 -11.5s39 -18.667 54 -33s26.667 -31.5 35 -51.5s12.5 -42.333 12.5 -67s-4.16699 -47 -12.5 -67s-20 -37 -35 -51s-33 -24.833 -54 -32.5s-44.167 -11.5 -69.5 -11.5
s-48.333 3.83301 -69 11.5s-38.667 18.5 -54 32.5s-27.166 31 -35.499 51s-12.5 42.333 -12.5 67z" />
    <glyph glyph-name="guillemotright" unicode="&#xbb;" 
d="M491 262l-103 -182h-110l105 182l-110 182h110zM283 262l-103 -182h-110l105 182l-110 182h110z" />
    <glyph glyph-name="onequarter" unicode="&#xbc;" horiz-adv-x="834" 
d="M145 632c-9.33301 -7.33301 -22.5 -15.832 -39.5 -25.499s-37.167 -19.167 -60.5 -28.5v87l28 14c10.667 5.33301 22 11.666 34 18.999s23.833 15.5 35.5 24.5s22.5 18.833 32.5 29.5h74v-452h-104v332zM570 752.001h82l-423 -764h-86zM476 185.001l173 259h106v-264h55
v-74h-55v-106h-96v106h-183v79zM659 340.001h-2l-102 -160h104v160z" />
    <glyph glyph-name="onehalf" unicode="&#xbd;" horiz-adv-x="834" 
d="M468 68l131.995 134.001c18.667 18.667 33.334 33.834 44.001 45.501s18.5 21.5 23.5 29.5s8.16699 15.333 9.5 22s2 14.667 2 24c0 12.667 -4.16699 23 -12.5 31s-21.166 12 -38.499 12s-31.166 -5.66699 -41.499 -17s-15.5 -29.333 -15.5 -54h-96
c0 32 5.33301 58.333 16 79s23.834 36.667 39.501 48s32.5 19.166 50.5 23.499s34.333 6.5 49 6.5c22.667 0 43.334 -3.16699 62.001 -9.5s34.667 -15.333 48 -27s23.833 -25.334 31.5 -41.001s11.5 -32.5 11.5 -50.5c0 -14 -1.66699 -27.333 -5 -40
s-9.16602 -25.5 -17.499 -38.5s-19.333 -26.667 -33 -41s-30.834 -30.833 -51.501 -49.5l-75 -69h188v-86h-321v68zM144.995 632.001c-9.33301 -7.33301 -22.5 -15.832 -39.5 -25.499s-37.167 -19.167 -60.5 -28.5v87l28 14c10.667 5.33301 22 11.666 34 18.999
s23.833 15.5 35.5 24.5s22.5 18.833 32.5 29.5h74v-452h-104v332zM561.995 752.002h82l-423 -764h-86z" />
    <glyph glyph-name="threequarters" unicode="&#xbe;" horiz-adv-x="834" 
d="M118 576l91.998 90h-169v86h285v-79l-101 -99c40 0 71.667 -12 95 -36s35 -54.333 35 -91c0 -21.333 -4.16699 -41 -12.5 -59s-20.166 -33.5 -35.499 -46.5s-33.666 -23.167 -54.999 -30.5s-45 -11 -71 -11c-15.333 0 -31.666 1.83301 -48.999 5.5
s-33.833 10.5 -49.5 20.5s-28.834 23.333 -39.501 40s-17 38 -19 64l104 8c0.666992 -12 3.33398 -21.5 8.00098 -28.5s10 -12.333 16 -16s12 -5.83398 18 -6.50098s10.667 -1 14 -1c17.333 0 31.833 6.33301 43.5 19s17.5 27.334 17.5 44.001
c0 18.667 -5.83301 33.167 -17.5 43.5s-28.167 15.5 -49.5 15.5c-12 0 -23.333 -1.66699 -34 -5s-19.334 -6.33301 -26.001 -9v82zM612.998 752h82l-423 -764h-86zM475.998 185l173 259h106v-264h55v-74h-55v-106h-96v106h-183v79zM658.998 340h-2l-102 -160h104v160z" />
    <glyph glyph-name="questiondown" unicode="&#xbf;" 
d="M294 554c23.333 0 43.166 -8.16699 59.499 -24.5s24.5 -36.166 24.5 -59.499s-8.16699 -43.166 -24.5 -59.499s-36.166 -24.5 -59.499 -24.5s-43.166 8.16699 -59.499 24.5s-24.5 36.166 -24.5 59.499s8.16699 43.166 24.5 59.499s36.166 24.5 59.499 24.5zM369 306
l0.00488281 -30.999c0 -26.667 -4.16699 -49.834 -12.5 -69.501s-19 -37.167 -32 -52.5s-26.833 -29.333 -41.5 -42s-28.5 -25.667 -41.5 -39s-23.667 -27.5 -32 -42.5s-12.5 -32.5 -12.5 -52.5c0 -27.333 8.33301 -47.333 25 -60s35.667 -19 57 -19
c29.333 0 51 8.5 65 25.5s21 39.5 21 67.5v12h138c0 -35.333 -5.33301 -67 -16 -95s-25.834 -51.833 -45.501 -71.5s-43.667 -34.667 -72 -45s-59.833 -15.5 -94.5 -15.5c-28 0 -55.333 4 -82 12s-50.334 20.167 -71.001 36.5s-37.334 37 -50.001 62s-19 54.833 -19 89.5
c0 28.667 4.33301 53.5 13 74.5s19.667 39.667 33 56s27.666 31 42.999 44s29.666 26.167 42.999 39.5s24.333 27.5 33 42.5s13 32.5 13 52.5v21h138z" />
    <glyph glyph-name="Agrave" unicode="&#xc0;" horiz-adv-x="722" 
d="M496 157h-275l-49 -157h-162l274 752h158l270 -752h-165zM360 571h-2l-95 -292h193zM216 935h135l88 -140h-83z" />
    <glyph glyph-name="Aacute" unicode="&#xc1;" horiz-adv-x="722" 
d="M496 157h-275l-49 -157h-162l274 752h158l270 -752h-165zM360 571h-2l-95 -292h193zM376 935h135l-140 -140h-83z" />
    <glyph glyph-name="Acircumflex" unicode="&#xc2;" horiz-adv-x="722" 
d="M496 157h-275l-49 -157h-162l274 752h158l270 -752h-165zM360 571h-2l-95 -292h193zM361 879l-70 -90h-92l107 146h110l107 -146h-92z" />
    <glyph glyph-name="Atilde" unicode="&#xc3;" horiz-adv-x="722" 
d="M496 157h-275l-49 -157h-162l274 752h158l270 -752h-165zM360 571h-2l-95 -292h193zM185 796c2 13.333 5.33301 27.001 10 41.001s11.334 26.667 20.001 38s19.5 20.5 32.5 27.5s28.5 10.5 46.5 10.5c13.333 0 26.333 -1.83301 39 -5.5s24.667 -7.83398 36 -12.501
l33.5 -13c10.333 -4 20.166 -6 29.499 -6c13.333 0 24 3.66699 32 11s13.333 17.666 16 30.999h57c-2 -13.333 -5.33301 -26.833 -10 -40.5s-11.334 -26.167 -20.001 -37.5s-19.334 -20.5 -32.001 -27.5s-28 -10.5 -46 -10.5c-13.333 0 -26.333 1.83301 -39 5.5
s-24.667 7.83398 -36 12.501l-33.5 13c-10.333 4 -20.166 6 -29.499 6c-27.333 0 -43.666 -14.333 -48.999 -43h-57z" />
    <glyph glyph-name="Adieresis" unicode="&#xc4;" horiz-adv-x="722" 
d="M496 157h-275l-49 -157h-162l274 752h158l270 -752h-165zM360 571h-2l-95 -292h193zM468 945c20.667 0 38.334 -7.33301 53.001 -22s22 -32.334 22 -53.001s-7.33301 -38.334 -22 -53.001s-32.334 -22 -53.001 -22s-38.334 7.33301 -53.001 22s-22 32.334 -22 53.001
s7.33301 38.334 22 53.001s32.334 22 53.001 22zM254 945c20.667 0 38.334 -7.33301 53.001 -22s22 -32.334 22 -53.001s-7.33301 -38.334 -22 -53.001s-32.334 -22 -53.001 -22s-38.334 7.33301 -53.001 22s-22 32.334 -22 53.001s7.33301 38.334 22 53.001
s32.334 22 53.001 22z" />
    <glyph glyph-name="Aring" unicode="&#xc5;" horiz-adv-x="722" 
d="M496 157h-275l-49 -157h-162l274 752h158l270 -752h-165zM360 571h-2l-95 -292h193zM312 878c0 -13.333 4.83301 -24.833 14.5 -34.5s21.167 -14.5 34.5 -14.5s24.833 4.83301 34.5 14.5s14.5 21.167 14.5 34.5s-4.83301 24.833 -14.5 34.5s-21.167 14.5 -34.5 14.5
s-24.833 -4.83301 -34.5 -14.5s-14.5 -21.167 -14.5 -34.5zM258 878c0 14 2.66699 27.167 8 39.5s12.666 23.166 21.999 32.499s20.333 16.833 33 22.5s26 8.5 40 8.5s27.167 -2.66699 39.5 -8s23.166 -12.833 32.499 -22.5s16.833 -20.667 22.5 -33s8.5 -25.5 8.5 -39.5
s-2.83301 -27.167 -8.5 -39.5s-13.167 -23.166 -22.5 -32.499s-20.166 -16.833 -32.499 -22.5s-25.5 -8.5 -39.5 -8.5s-27.333 2.83301 -40 8.5s-23.667 13.167 -33 22.5s-16.666 20.333 -21.999 33s-8 25.667 -8 39z" />
    <glyph glyph-name="AE" unicode="&#xc6;" horiz-adv-x="944" 
d="M465 636h-11l-148 -347h159v347zM465 161h-219l-72 -161h-164l344 752h542v-134h-281v-171h271v-134h-271v-179h281v-134h-431v161z" />
    <glyph glyph-name="Ccedilla" unicode="&#xc7;" horiz-adv-x="778" 
d="M576 485c-11.333 48.667 -32.332 85.333 -62.999 110s-67.667 37 -111 37c-30.667 0 -58 -6.83301 -82 -20.5s-44.5 -32.167 -61.5 -55.5s-30 -50.666 -39 -81.999s-13.5 -64.333 -13.5 -99c0 -80 18 -142.5 54 -187.5s84.667 -67.5 146 -67.5c18 0 35.667 3 53 9
s33.5 14.667 48.5 26s28.167 25.166 39.5 41.499s20.333 35.166 27 56.499l154 -11c-26 -84.667 -67.833 -148.5 -125.5 -191.5s-125.167 -64.5 -202.5 -64.5c-51.333 0 -98.333 8.5 -141 25.5s-79.5 42 -110.5 75s-55.167 73.667 -72.5 122s-26 104.166 -26 167.499
c0 56.667 8.5 108.834 25.5 156.501s41 88.834 72 123.501s67.833 61.667 110.5 81s90 29 142 29c39.333 0 76.666 -5 111.999 -15s67.333 -26 96 -48s53.167 -50.167 73.5 -84.5s35.5 -75.5 45.5 -123.5zM308.001 -88.001l66.001 94h68l-38 -52l2 -2
c4 0.666992 8.16699 1.16699 12.5 1.5s9.16602 0.5 14.499 0.5c22.667 0 41.5 -7.83301 56.5 -23.5s22.5 -36.834 22.5 -63.501c0 -30.667 -11.167 -55.167 -33.5 -73.5s-51.833 -27.5 -88.5 -27.5c-28 0 -52.5 3 -73.5 9s-36.167 11.667 -45.5 17l19 53
c14 -6 26.5 -10.5 37.5 -13.5s22.167 -4.5 33.5 -4.5c5.33301 0 11.166 0.333008 17.499 1s12.333 2.33398 18 5.00098s10.334 6.5 14.001 11.5s5.5 11.833 5.5 20.5s-3.33301 17 -10 25s-18.667 12 -36 12c-18 0 -31.333 -3 -40 -9z" />
    <glyph glyph-name="Egrave" unicode="&#xc8;" horiz-adv-x="611" 
d="M83 752h480v-134h-330v-171h321v-134h-321v-179h330v-134h-480v752zM181 935h135l88 -140h-83z" />
    <glyph glyph-name="Eacute" unicode="&#xc9;" horiz-adv-x="611" 
d="M83 752h480v-134h-330v-171h321v-134h-321v-179h330v-134h-480v752zM341 935h135l-140 -140h-83z" />
    <glyph glyph-name="Ecircumflex" unicode="&#xca;" horiz-adv-x="611" 
d="M83 752h480v-134h-330v-171h321v-134h-321v-179h330v-134h-480v752zM306 879l-70 -90h-92l107 146h110l107 -146h-92z" />
    <glyph glyph-name="Edieresis" unicode="&#xcb;" horiz-adv-x="611" 
d="M83 752h480v-134h-330v-171h321v-134h-321v-179h330v-134h-480v752zM413 945c20.667 0 38.334 -7.33301 53.001 -22s22 -32.334 22 -53.001s-7.33301 -38.334 -22 -53.001s-32.334 -22 -53.001 -22s-38.334 7.33301 -53.001 22s-22 32.334 -22 53.001
s7.33301 38.334 22 53.001s32.334 22 53.001 22zM199 945c20.667 0 38.334 -7.33301 53.001 -22s22 -32.334 22 -53.001s-7.33301 -38.334 -22 -53.001s-32.334 -22 -53.001 -22s-38.334 7.33301 -53.001 22s-22 32.334 -22 53.001s7.33301 38.334 22 53.001
s32.334 22 53.001 22z" />
    <glyph glyph-name="Igrave" unicode="&#xcc;" horiz-adv-x="332" 
d="M91 752h150v-752h-150v752zM22 935h135l88 -140h-83z" />
    <glyph glyph-name="Iacute" unicode="&#xcd;" horiz-adv-x="332" 
d="M91 752h150v-752h-150v752zM176 935h135l-140 -140h-83z" />
    <glyph glyph-name="Icircumflex" unicode="&#xce;" horiz-adv-x="332" 
d="M91 752h150v-752h-150v752zM166 879l-70 -90h-92l107 146h110l107 -146h-92z" />
    <glyph glyph-name="Idieresis" unicode="&#xcf;" horiz-adv-x="332" 
d="M91 752h150v-752h-150v752zM273 945c20.667 0 38.334 -7.33301 53.001 -22s22 -32.334 22 -53.001s-7.33301 -38.334 -22 -53.001s-32.334 -22 -53.001 -22s-38.334 7.33301 -53.001 22s-22 32.334 -22 53.001s7.33301 38.334 22 53.001s32.334 22 53.001 22zM59 945
c20.667 0 38.334 -7.33301 53.001 -22s22 -32.334 22 -53.001s-7.33301 -38.334 -22 -53.001s-32.334 -22 -53.001 -22s-38.334 7.33301 -53.001 22s-22 32.334 -22 53.001s7.33301 38.334 22 53.001s32.334 22 53.001 22z" />
    <glyph glyph-name="Eth" unicode="&#xd0;" horiz-adv-x="778" 
d="M430 350l-197.001 -0.000976562v-222h127c38.667 0 71.334 7.5 98.001 22.5s48.5 34.333 65.5 58s29.333 50.334 37 80.001s11.5 59.167 11.5 88.5c0 31.333 -3.66699 61.833 -11 91.5s-19.666 56 -36.999 79s-40.333 41.5 -69 55.5s-64.334 21 -107.001 21h-115v-182
h197v-92zM4.99902 441.999l78 0.000976562v310h283c56.667 0 107.5 -8.16699 152.5 -24.5s83 -40.5 114 -72.5s54.667 -71.333 71 -118s24.5 -100.334 24.5 -161.001c0 -60 -9.66699 -113.333 -29 -160s-45.333 -86 -78 -118s-70.667 -56.333 -114 -73s-89 -25 -137 -25
h-287v350h-78v92z" />
    <glyph glyph-name="Ntilde" unicode="&#xd1;" horiz-adv-x="778" 
d="M229 513h-2v-513h-144v752h161l305 -505h2v505h144v-752h-155zM213 796c2 13.333 5.33301 27.001 10 41.001s11.334 26.667 20.001 38s19.5 20.5 32.5 27.5s28.5 10.5 46.5 10.5c13.333 0 26.333 -1.83301 39 -5.5s24.667 -7.83398 36 -12.501l33.5 -13
c10.333 -4 20.166 -6 29.499 -6c13.333 0 24 3.66699 32 11s13.333 17.666 16 30.999h57c-2 -13.333 -5.33301 -26.833 -10 -40.5s-11.334 -26.167 -20.001 -37.5s-19.334 -20.5 -32.001 -27.5s-28 -10.5 -46 -10.5c-13.333 0 -26.333 1.83301 -39 5.5
s-24.667 7.83398 -36 12.501l-33.5 13c-10.333 4 -20.166 6 -29.499 6c-27.333 0 -43.666 -14.333 -48.999 -43h-57z" />
    <glyph glyph-name="Ograve" unicode="&#xd2;" horiz-adv-x="832" 
d="M50 376c0 50.667 8.16699 99.5 24.5 146.5s40 88.5 71 124.5s69.167 64.833 114.5 86.5s97.333 32.5 156 32.5s110.667 -10.833 156 -32.5s83.5 -50.5 114.5 -86.5s54.667 -77.5 71 -124.5s24.5 -95.833 24.5 -146.5s-8.16699 -99.5 -24.5 -146.5s-40 -88.5 -71 -124.5
s-69.167 -64.833 -114.5 -86.5s-97.333 -32.5 -156 -32.5s-110.667 10.833 -156 32.5s-83.5 50.5 -114.5 86.5s-54.667 77.5 -71 124.5s-24.5 95.833 -24.5 146.5zM626 376c0 34 -4.33301 66.333 -13 97s-21.834 57.834 -39.501 81.501s-39.667 42.5 -66 56.5
s-56.833 21 -91.5 21c-35.333 0 -66 -7 -92 -21s-47.833 -32.833 -65.5 -56.5s-30.834 -50.834 -39.501 -81.501s-13 -63 -13 -97s4.33301 -66.333 13 -97s21.834 -57.834 39.501 -81.501s39.5 -42.5 65.5 -56.5s56.667 -21 92 -21c34.667 0 65.167 7 91.5 21
s48.333 32.833 66 56.5s30.834 50.834 39.501 81.501s13 63 13 97zM281 935h135l88 -140h-83z" />
    <glyph glyph-name="Oacute" unicode="&#xd3;" horiz-adv-x="832" 
d="M50 376c0 50.667 8.16699 99.5 24.5 146.5s40 88.5 71 124.5s69.167 64.833 114.5 86.5s97.333 32.5 156 32.5s110.667 -10.833 156 -32.5s83.5 -50.5 114.5 -86.5s54.667 -77.5 71 -124.5s24.5 -95.833 24.5 -146.5s-8.16699 -99.5 -24.5 -146.5s-40 -88.5 -71 -124.5
s-69.167 -64.833 -114.5 -86.5s-97.333 -32.5 -156 -32.5s-110.667 10.833 -156 32.5s-83.5 50.5 -114.5 86.5s-54.667 77.5 -71 124.5s-24.5 95.833 -24.5 146.5zM626 376c0 34 -4.33301 66.333 -13 97s-21.834 57.834 -39.501 81.501s-39.667 42.5 -66 56.5
s-56.833 21 -91.5 21c-35.333 0 -66 -7 -92 -21s-47.833 -32.833 -65.5 -56.5s-30.834 -50.834 -39.501 -81.501s-13 -63 -13 -97s4.33301 -66.333 13 -97s21.834 -57.834 39.501 -81.501s39.5 -42.5 65.5 -56.5s56.667 -21 92 -21c34.667 0 65.167 7 91.5 21
s48.333 32.833 66 56.5s30.834 50.834 39.501 81.501s13 63 13 97zM416 935h135l-140 -140h-83z" />
    <glyph glyph-name="Ocircumflex" unicode="&#xd4;" horiz-adv-x="832" 
d="M50 376c0 50.667 8.16699 99.5 24.5 146.5s40 88.5 71 124.5s69.167 64.833 114.5 86.5s97.333 32.5 156 32.5s110.667 -10.833 156 -32.5s83.5 -50.5 114.5 -86.5s54.667 -77.5 71 -124.5s24.5 -95.833 24.5 -146.5s-8.16699 -99.5 -24.5 -146.5s-40 -88.5 -71 -124.5
s-69.167 -64.833 -114.5 -86.5s-97.333 -32.5 -156 -32.5s-110.667 10.833 -156 32.5s-83.5 50.5 -114.5 86.5s-54.667 77.5 -71 124.5s-24.5 95.833 -24.5 146.5zM626 376c0 34 -4.33301 66.333 -13 97s-21.834 57.834 -39.501 81.501s-39.667 42.5 -66 56.5
s-56.833 21 -91.5 21c-35.333 0 -66 -7 -92 -21s-47.833 -32.833 -65.5 -56.5s-30.834 -50.834 -39.501 -81.501s-13 -63 -13 -97s4.33301 -66.333 13 -97s21.834 -57.834 39.501 -81.501s39.5 -42.5 65.5 -56.5s56.667 -21 92 -21c34.667 0 65.167 7 91.5 21
s48.333 32.833 66 56.5s30.834 50.834 39.501 81.501s13 63 13 97zM416 879l-70 -90h-92l107 146h110l107 -146h-92z" />
    <glyph glyph-name="Otilde" unicode="&#xd5;" horiz-adv-x="832" 
d="M50 376c0 50.667 8.16699 99.5 24.5 146.5s40 88.5 71 124.5s69.167 64.833 114.5 86.5s97.333 32.5 156 32.5s110.667 -10.833 156 -32.5s83.5 -50.5 114.5 -86.5s54.667 -77.5 71 -124.5s24.5 -95.833 24.5 -146.5s-8.16699 -99.5 -24.5 -146.5s-40 -88.5 -71 -124.5
s-69.167 -64.833 -114.5 -86.5s-97.333 -32.5 -156 -32.5s-110.667 10.833 -156 32.5s-83.5 50.5 -114.5 86.5s-54.667 77.5 -71 124.5s-24.5 95.833 -24.5 146.5zM626 376c0 34 -4.33301 66.333 -13 97s-21.834 57.834 -39.501 81.501s-39.667 42.5 -66 56.5
s-56.833 21 -91.5 21c-35.333 0 -66 -7 -92 -21s-47.833 -32.833 -65.5 -56.5s-30.834 -50.834 -39.501 -81.501s-13 -63 -13 -97s4.33301 -66.333 13 -97s21.834 -57.834 39.501 -81.501s39.5 -42.5 65.5 -56.5s56.667 -21 92 -21c34.667 0 65.167 7 91.5 21
s48.333 32.833 66 56.5s30.834 50.834 39.501 81.501s13 63 13 97zM240 796c2 13.333 5.33301 27.001 10 41.001s11.334 26.667 20.001 38s19.5 20.5 32.5 27.5s28.5 10.5 46.5 10.5c13.333 0 26.333 -1.83301 39 -5.5s24.667 -7.83398 36 -12.501l33.5 -13
c10.333 -4 20.166 -6 29.499 -6c13.333 0 24 3.66699 32 11s13.333 17.666 16 30.999h57c-2 -13.333 -5.33301 -26.833 -10 -40.5s-11.334 -26.167 -20.001 -37.5s-19.334 -20.5 -32.001 -27.5s-28 -10.5 -46 -10.5c-13.333 0 -26.333 1.83301 -39 5.5
s-24.667 7.83398 -36 12.501l-33.5 13c-10.333 4 -20.166 6 -29.499 6c-27.333 0 -43.666 -14.333 -48.999 -43h-57z" />
    <glyph glyph-name="Odieresis" unicode="&#xd6;" horiz-adv-x="832" 
d="M50 376c0 50.667 8.16699 99.5 24.5 146.5s40 88.5 71 124.5s69.167 64.833 114.5 86.5s97.333 32.5 156 32.5s110.667 -10.833 156 -32.5s83.5 -50.5 114.5 -86.5s54.667 -77.5 71 -124.5s24.5 -95.833 24.5 -146.5s-8.16699 -99.5 -24.5 -146.5s-40 -88.5 -71 -124.5
s-69.167 -64.833 -114.5 -86.5s-97.333 -32.5 -156 -32.5s-110.667 10.833 -156 32.5s-83.5 50.5 -114.5 86.5s-54.667 77.5 -71 124.5s-24.5 95.833 -24.5 146.5zM626 376c0 34 -4.33301 66.333 -13 97s-21.834 57.834 -39.501 81.501s-39.667 42.5 -66 56.5
s-56.833 21 -91.5 21c-35.333 0 -66 -7 -92 -21s-47.833 -32.833 -65.5 -56.5s-30.834 -50.834 -39.501 -81.501s-13 -63 -13 -97s4.33301 -66.333 13 -97s21.834 -57.834 39.501 -81.501s39.5 -42.5 65.5 -56.5s56.667 -21 92 -21c34.667 0 65.167 7 91.5 21
s48.333 32.833 66 56.5s30.834 50.834 39.501 81.501s13 63 13 97zM523 945c20.667 0 38.334 -7.33301 53.001 -22s22 -32.334 22 -53.001s-7.33301 -38.334 -22 -53.001s-32.334 -22 -53.001 -22s-38.334 7.33301 -53.001 22s-22 32.334 -22 53.001
s7.33301 38.334 22 53.001s32.334 22 53.001 22zM309 945c20.667 0 38.334 -7.33301 53.001 -22s22 -32.334 22 -53.001s-7.33301 -38.334 -22 -53.001s-32.334 -22 -53.001 -22s-38.334 7.33301 -53.001 22s-22 32.334 -22 53.001s7.33301 38.334 22 53.001
s32.334 22 53.001 22z" />
    <glyph glyph-name="multiply" unicode="&#xd7;" horiz-adv-x="600" 
d="M66 415l72 72l162 -162l162 162l72 -72l-163 -162l163 -162l-72 -72l-162 163l-162 -163l-72 72l162 162z" />
    <glyph glyph-name="Oslash" unicode="&#xd8;" horiz-adv-x="832" 
d="M132 122c-27.333 34.667 -47.833 73.834 -61.5 117.501s-20.5 89.167 -20.5 136.5c0 50.667 8.16699 99.5 24.5 146.5s40 88.5 71 124.5s69.167 64.833 114.5 86.5s97.333 32.5 156 32.5c49.333 0 94 -7.66699 134 -23s75 -37 105 -65l97 102l47 -45l-99 -105
c27.333 -34.667 47.833 -73.834 61.5 -117.501s20.5 -89.167 20.5 -136.5c0 -50.667 -8.16699 -99.5 -24.5 -146.5s-40 -88.5 -71 -124.5s-69.167 -64.833 -114.5 -86.5s-97.333 -32.5 -156 -32.5c-50 0 -94.833 7.83301 -134.5 23.5s-74.5 37.5 -104.5 65.5l-97 -103
l-47 45zM557 573c-17.333 18.667 -37.666 33.168 -60.999 43.501s-50 15.5 -80 15.5c-35.333 0 -66 -7 -92 -21s-47.833 -32.833 -65.5 -56.5s-30.834 -50.834 -39.501 -81.501s-13 -63 -13 -97c0 -26 2.66699 -51.167 8 -75.5s13.333 -46.5 24 -66.5zM275 179.001
c17.333 -18.667 37.666 -33.168 60.999 -43.501s50 -15.5 80 -15.5c34.667 0 65.167 7 91.5 21s48.333 32.833 66 56.5s30.834 50.834 39.501 81.501s13 63 13 97c0 26 -2.66699 51.333 -8 76s-13 47 -23 67z" />
    <glyph glyph-name="Ugrave" unicode="&#xd9;" horiz-adv-x="778" 
d="M552 752h150.001v-440c0 -58.667 -8.66699 -108.667 -26 -150s-40.333 -75 -69 -101s-62 -45 -100 -57s-77.333 -18 -118 -18c-41.333 0 -80.833 6 -118.5 18s-70.834 31 -99.501 57s-51.667 59.667 -69 101s-26 91.333 -26 150v440h150v-441
c0 -62.667 13.667 -110.167 41 -142.5s68 -48.5 122 -48.5s94.667 16.167 122 48.5s41 79.833 41 142.5v441zM239.001 935h135l88 -140h-83z" />
    <glyph glyph-name="Uacute" unicode="&#xda;" horiz-adv-x="778" 
d="M552 752h150.001v-440c0 -58.667 -8.66699 -108.667 -26 -150s-40.333 -75 -69 -101s-62 -45 -100 -57s-77.333 -18 -118 -18c-41.333 0 -80.833 6 -118.5 18s-70.834 31 -99.501 57s-51.667 59.667 -69 101s-26 91.333 -26 150v440h150v-441
c0 -62.667 13.667 -110.167 41 -142.5s68 -48.5 122 -48.5s94.667 16.167 122 48.5s41 79.833 41 142.5v441zM404.001 935h135l-140 -140h-83z" />
    <glyph glyph-name="Ucircumflex" unicode="&#xdb;" horiz-adv-x="778" 
d="M552 752h150.001v-440c0 -58.667 -8.66699 -108.667 -26 -150s-40.333 -75 -69 -101s-62 -45 -100 -57s-77.333 -18 -118 -18c-41.333 0 -80.833 6 -118.5 18s-70.834 31 -99.501 57s-51.667 59.667 -69 101s-26 91.333 -26 150v440h150v-441
c0 -62.667 13.667 -110.167 41 -142.5s68 -48.5 122 -48.5s94.667 16.167 122 48.5s41 79.833 41 142.5v441zM389.001 879l-70 -90h-92l107 146h110l107 -146h-92z" />
    <glyph glyph-name="Udieresis" unicode="&#xdc;" horiz-adv-x="778" 
d="M552 752h150.001v-440c0 -58.667 -8.66699 -108.667 -26 -150s-40.333 -75 -69 -101s-62 -45 -100 -57s-77.333 -18 -118 -18c-41.333 0 -80.833 6 -118.5 18s-70.834 31 -99.501 57s-51.667 59.667 -69 101s-26 91.333 -26 150v440h150v-441
c0 -62.667 13.667 -110.167 41 -142.5s68 -48.5 122 -48.5s94.667 16.167 122 48.5s41 79.833 41 142.5v441zM496.001 945c20.667 0 38.334 -7.33301 53.001 -22s22 -32.334 22 -53.001s-7.33301 -38.334 -22 -53.001s-32.334 -22 -53.001 -22s-38.334 7.33301 -53.001 22
s-22 32.334 -22 53.001s7.33301 38.334 22 53.001s32.334 22 53.001 22zM282.001 945c20.667 0 38.334 -7.33301 53.001 -22s22 -32.334 22 -53.001s-7.33301 -38.334 -22 -53.001s-32.334 -22 -53.001 -22s-38.334 7.33301 -53.001 22s-22 32.334 -22 53.001
s7.33301 38.334 22 53.001s32.334 22 53.001 22z" />
    <glyph glyph-name="Yacute" unicode="&#xdd;" horiz-adv-x="611" 
d="M436 752h165l-219 -451v-301h-150v301l-222 451h175l123 -289zM321 935h135l-140 -140h-83z" />
    <glyph glyph-name="Thorn" unicode="&#xde;" horiz-adv-x="611" 
d="M83 752h150.002v-129h95c29.333 0 59.5 -3.83301 90.5 -11.5s59.167 -20.667 84.5 -39s46 -42.833 62 -73.5s24 -69 24 -115c0 -43.333 -7.33301 -80 -22 -110s-33.834 -54.5 -57.501 -73.5s-50.334 -32.833 -80.001 -41.5s-59.5 -13 -89.5 -13h-107v-146h-150v752z
M317.002 274c24.667 0 45 3.33105 61 9.99805s28.5 15.334 37.5 26.001s15.167 22.5 18.5 35.5s5 25.833 5 38.5s-2.33301 25.667 -7 39s-11.834 25.333 -21.501 36s-22.167 19.334 -37.5 26.001s-33.666 10 -54.999 10h-85v-221h84z" />
    <glyph glyph-name="germandbls" unicode="&#xdf;" horiz-adv-x="610" 
d="M283 453c10 0 20.9951 0.5 32.9951 1.5s23.167 4.5 33.5 10.5s18.833 15.5 25.5 28.5s10 31.5 10 55.5c0 18 -2.83301 32.5 -8.5 43.5s-12.667 19.833 -21 26.5s-17.666 11.167 -27.999 13.5s-20.166 3.5 -29.499 3.5c-28 0 -49.167 -8.5 -63.5 -25.5
s-21.5 -44.167 -21.5 -81.5v-529h-144v535c0 31.333 5 60.666 15 87.999s24.833 51 44.5 71s44.167 35.667 73.5 47s63.333 17 102 17c28.667 0 56.334 -4 83.001 -12s50.5 -19.833 71.5 -35.5s38 -35.5 51 -59.5s19.5 -52 19.5 -84c0 -35.333 -8 -66 -24 -92
s-38 -47.667 -66 -65v-2c14 -1.33301 28.667 -5.66602 44 -12.999s29.333 -18.166 42 -32.499s23 -32.333 31 -54s12 -47.834 12 -78.501c0 -33.333 -5.5 -64.333 -16.5 -93s-26.5 -53.5 -46.5 -74.5s-44.167 -37.667 -72.5 -50s-59.833 -18.5 -94.5 -18.5
c-15.333 0 -28.166 0.666992 -38.499 2s-20.166 2.66602 -29.499 3.99902v124c6 -0.666992 11.333 -1.16699 16 -1.5s10.667 -0.5 18 -0.5c42.667 0 72.334 9.83301 89.001 29.5s25 44.834 25 75.501c0 27.333 -5 48.333 -15 63s-22 25.5 -36 32.5
s-28.833 11.167 -44.5 12.5s-28.834 2 -39.501 2v116z" />
    <glyph glyph-name="agrave" unicode="&#xe0;" horiz-adv-x="611" 
d="M406 67l-1.99805 -0.000976562c-24 -31.333 -51.833 -52.666 -83.5 -63.999s-62.5 -17 -92.5 -17c-20 0 -40.667 2.66699 -62 8s-40.833 14.166 -58.5 26.499s-32 28.5 -43 48.5s-16.5 44.667 -16.5 74c0 14 2 29.5 6 46.5s13.333 33.167 28 48.5s36.667 28.833 66 40.5
s69 19.167 119 22.5l133 8v24c0 30.667 -8.83301 53.5 -26.5 68.5s-42.5 22.5 -74.5 22.5c-30 0 -53.333 -6.83301 -70 -20.5s-25.667 -32.167 -27 -55.5h-138c1.33301 20 6.16602 40.5 14.499 61.5s21.833 40.333 40.5 58s43 32.167 73 43.5s67.667 17 113 17
c32 0 62 -3.16699 90 -9.5s52.667 -16.166 74 -29.499s38.166 -30.5 50.499 -51.5s18.5 -46.167 18.5 -75.5v-298c0 -13.333 0.666992 -25 2 -35s3 -19.667 5 -29h-139v67zM400.002 223.999l-120 -10.999c-33.333 -3.33301 -56.333 -10 -69 -20s-19 -24.333 -19 -43
c0 -11.333 2.5 -20.833 7.5 -28.5s11.5 -13.834 19.5 -18.501s17.5 -8 28.5 -10s22.5 -3 34.5 -3c11.333 0 23.833 1.66699 37.5 5s26.5 8.5 38.5 15.5s22 16 30 27s12 24.167 12 39.5v47zM161.002 742h135l88 -140h-83z" />
    <glyph glyph-name="aacute" unicode="&#xe1;" horiz-adv-x="611" 
d="M406 67l-1.99805 -0.000976562c-24 -31.333 -51.833 -52.666 -83.5 -63.999s-62.5 -17 -92.5 -17c-20 0 -40.667 2.66699 -62 8s-40.833 14.166 -58.5 26.499s-32 28.5 -43 48.5s-16.5 44.667 -16.5 74c0 14 2 29.5 6 46.5s13.333 33.167 28 48.5s36.667 28.833 66 40.5
s69 19.167 119 22.5l133 8v24c0 30.667 -8.83301 53.5 -26.5 68.5s-42.5 22.5 -74.5 22.5c-30 0 -53.333 -6.83301 -70 -20.5s-25.667 -32.167 -27 -55.5h-138c1.33301 20 6.16602 40.5 14.499 61.5s21.833 40.333 40.5 58s43 32.167 73 43.5s67.667 17 113 17
c32 0 62 -3.16699 90 -9.5s52.667 -16.166 74 -29.499s38.166 -30.5 50.499 -51.5s18.5 -46.167 18.5 -75.5v-298c0 -13.333 0.666992 -25 2 -35s3 -19.667 5 -29h-139v67zM400.002 223.999l-120 -10.999c-33.333 -3.33301 -56.333 -10 -69 -20s-19 -24.333 -19 -43
c0 -11.333 2.5 -20.833 7.5 -28.5s11.5 -13.834 19.5 -18.501s17.5 -8 28.5 -10s22.5 -3 34.5 -3c11.333 0 23.833 1.66699 37.5 5s26.5 8.5 38.5 15.5s22 16 30 27s12 24.167 12 39.5v47zM321.002 742h135l-140 -140h-83z" />
    <glyph glyph-name="acircumflex" unicode="&#xe2;" horiz-adv-x="611" 
d="M406 67l-1.99805 -0.000976562c-24 -31.333 -51.833 -52.666 -83.5 -63.999s-62.5 -17 -92.5 -17c-20 0 -40.667 2.66699 -62 8s-40.833 14.166 -58.5 26.499s-32 28.5 -43 48.5s-16.5 44.667 -16.5 74c0 14 2 29.5 6 46.5s13.333 33.167 28 48.5s36.667 28.833 66 40.5
s69 19.167 119 22.5l133 8v24c0 30.667 -8.83301 53.5 -26.5 68.5s-42.5 22.5 -74.5 22.5c-30 0 -53.333 -6.83301 -70 -20.5s-25.667 -32.167 -27 -55.5h-138c1.33301 20 6.16602 40.5 14.499 61.5s21.833 40.333 40.5 58s43 32.167 73 43.5s67.667 17 113 17
c32 0 62 -3.16699 90 -9.5s52.667 -16.166 74 -29.499s38.166 -30.5 50.499 -51.5s18.5 -46.167 18.5 -75.5v-298c0 -13.333 0.666992 -25 2 -35s3 -19.667 5 -29h-139v67zM400.002 223.999l-120 -10.999c-33.333 -3.33301 -56.333 -10 -69 -20s-19 -24.333 -19 -43
c0 -11.333 2.5 -20.833 7.5 -28.5s11.5 -13.834 19.5 -18.501s17.5 -8 28.5 -10s22.5 -3 34.5 -3c11.333 0 23.833 1.66699 37.5 5s26.5 8.5 38.5 15.5s22 16 30 27s12 24.167 12 39.5v47zM306.002 686l-70 -90h-92l107 146h110l107 -146h-92z" />
    <glyph glyph-name="atilde" unicode="&#xe3;" horiz-adv-x="611" 
d="M406 67l-1.99805 -0.000976562c-24 -31.333 -51.833 -52.666 -83.5 -63.999s-62.5 -17 -92.5 -17c-20 0 -40.667 2.66699 -62 8s-40.833 14.166 -58.5 26.499s-32 28.5 -43 48.5s-16.5 44.667 -16.5 74c0 14 2 29.5 6 46.5s13.333 33.167 28 48.5s36.667 28.833 66 40.5
s69 19.167 119 22.5l133 8v24c0 30.667 -8.83301 53.5 -26.5 68.5s-42.5 22.5 -74.5 22.5c-30 0 -53.333 -6.83301 -70 -20.5s-25.667 -32.167 -27 -55.5h-138c1.33301 20 6.16602 40.5 14.499 61.5s21.833 40.333 40.5 58s43 32.167 73 43.5s67.667 17 113 17
c32 0 62 -3.16699 90 -9.5s52.667 -16.166 74 -29.499s38.166 -30.5 50.499 -51.5s18.5 -46.167 18.5 -75.5v-298c0 -13.333 0.666992 -25 2 -35s3 -19.667 5 -29h-139v67zM400.002 223.999l-120 -10.999c-33.333 -3.33301 -56.333 -10 -69 -20s-19 -24.333 -19 -43
c0 -11.333 2.5 -20.833 7.5 -28.5s11.5 -13.834 19.5 -18.501s17.5 -8 28.5 -10s22.5 -3 34.5 -3c11.333 0 23.833 1.66699 37.5 5s26.5 8.5 38.5 15.5s22 16 30 27s12 24.167 12 39.5v47zM130.002 603c2 13.333 5.33301 27.001 10 41.001s11.334 26.667 20.001 38
s19.5 20.5 32.5 27.5s28.5 10.5 46.5 10.5c13.333 0 26.333 -1.83301 39 -5.5s24.667 -7.83398 36 -12.501l33.5 -13c10.333 -4 20.166 -6 29.499 -6c13.333 0 24 3.66699 32 11s13.333 17.666 16 30.999h57c-2 -13.333 -5.33301 -26.833 -10 -40.5
s-11.334 -26.167 -20.001 -37.5s-19.334 -20.5 -32.001 -27.5s-28 -10.5 -46 -10.5c-13.333 0 -26.333 1.83301 -39 5.5s-24.667 7.83398 -36 12.501l-33.5 13c-10.333 4 -20.166 6 -29.499 6c-27.333 0 -43.666 -14.333 -48.999 -43h-57z" />
    <glyph glyph-name="adieresis" unicode="&#xe4;" horiz-adv-x="611" 
d="M406 67l-1.99805 -0.000976562c-24 -31.333 -51.833 -52.666 -83.5 -63.999s-62.5 -17 -92.5 -17c-20 0 -40.667 2.66699 -62 8s-40.833 14.166 -58.5 26.499s-32 28.5 -43 48.5s-16.5 44.667 -16.5 74c0 14 2 29.5 6 46.5s13.333 33.167 28 48.5s36.667 28.833 66 40.5
s69 19.167 119 22.5l133 8v24c0 30.667 -8.83301 53.5 -26.5 68.5s-42.5 22.5 -74.5 22.5c-30 0 -53.333 -6.83301 -70 -20.5s-25.667 -32.167 -27 -55.5h-138c1.33301 20 6.16602 40.5 14.499 61.5s21.833 40.333 40.5 58s43 32.167 73 43.5s67.667 17 113 17
c32 0 62 -3.16699 90 -9.5s52.667 -16.166 74 -29.499s38.166 -30.5 50.499 -51.5s18.5 -46.167 18.5 -75.5v-298c0 -13.333 0.666992 -25 2 -35s3 -19.667 5 -29h-139v67zM400.002 223.999l-120 -10.999c-33.333 -3.33301 -56.333 -10 -69 -20s-19 -24.333 -19 -43
c0 -11.333 2.5 -20.833 7.5 -28.5s11.5 -13.834 19.5 -18.501s17.5 -8 28.5 -10s22.5 -3 34.5 -3c11.333 0 23.833 1.66699 37.5 5s26.5 8.5 38.5 15.5s22 16 30 27s12 24.167 12 39.5v47zM413.002 752c20.667 0 38.334 -7.33301 53.001 -22s22 -32.334 22 -53.001
s-7.33301 -38.334 -22 -53.001s-32.334 -22 -53.001 -22s-38.334 7.33301 -53.001 22s-22 32.334 -22 53.001s7.33301 38.334 22 53.001s32.334 22 53.001 22zM199.002 752c20.667 0 38.334 -7.33301 53.001 -22s22 -32.334 22 -53.001s-7.33301 -38.334 -22 -53.001
s-32.334 -22 -53.001 -22s-38.334 7.33301 -53.001 22s-22 32.334 -22 53.001s7.33301 38.334 22 53.001s32.334 22 53.001 22z" />
    <glyph glyph-name="aring" unicode="&#xe5;" horiz-adv-x="611" 
d="M406 67l-1.99805 -0.000976562c-24 -31.333 -51.833 -52.666 -83.5 -63.999s-62.5 -17 -92.5 -17c-20 0 -40.667 2.66699 -62 8s-40.833 14.166 -58.5 26.499s-32 28.5 -43 48.5s-16.5 44.667 -16.5 74c0 14 2 29.5 6 46.5s13.333 33.167 28 48.5s36.667 28.833 66 40.5
s69 19.167 119 22.5l133 8v24c0 30.667 -8.83301 53.5 -26.5 68.5s-42.5 22.5 -74.5 22.5c-30 0 -53.333 -6.83301 -70 -20.5s-25.667 -32.167 -27 -55.5h-138c1.33301 20 6.16602 40.5 14.499 61.5s21.833 40.333 40.5 58s43 32.167 73 43.5s67.667 17 113 17
c32 0 62 -3.16699 90 -9.5s52.667 -16.166 74 -29.499s38.166 -30.5 50.499 -51.5s18.5 -46.167 18.5 -75.5v-298c0 -13.333 0.666992 -25 2 -35s3 -19.667 5 -29h-139v67zM400.002 223.999l-120 -10.999c-33.333 -3.33301 -56.333 -10 -69 -20s-19 -24.333 -19 -43
c0 -11.333 2.5 -20.833 7.5 -28.5s11.5 -13.834 19.5 -18.501s17.5 -8 28.5 -10s22.5 -3 34.5 -3c11.333 0 23.833 1.66699 37.5 5s26.5 8.5 38.5 15.5s22 16 30 27s12 24.167 12 39.5v47zM257.002 685c0 -13.333 4.83301 -24.833 14.5 -34.5s21.167 -14.5 34.5 -14.5
s24.833 4.83301 34.5 14.5s14.5 21.167 14.5 34.5s-4.83301 24.833 -14.5 34.5s-21.167 14.5 -34.5 14.5s-24.833 -4.83301 -34.5 -14.5s-14.5 -21.167 -14.5 -34.5zM203.002 685c0 14 2.66699 27.167 8 39.5s12.666 23.166 21.999 32.499s20.333 16.833 33 22.5
s26 8.5 40 8.5s27.167 -2.66699 39.5 -8s23.166 -12.833 32.499 -22.5s16.833 -20.667 22.5 -33s8.5 -25.5 8.5 -39.5s-2.83301 -27.167 -8.5 -39.5s-13.167 -23.166 -22.5 -32.499s-20.166 -16.833 -32.499 -22.5s-25.5 -8.5 -39.5 -8.5s-27.333 2.83301 -40 8.5
s-23.667 13.167 -33 22.5s-16.666 20.333 -21.999 33s-8 25.667 -8 39z" />
    <glyph glyph-name="ae" unicode="&#xe6;" horiz-adv-x="944" 
d="M755 308c-1.33301 12.667 -4.66992 25.499 -10.0029 38.499s-12.666 24.833 -21.999 35.5s-20.666 19.334 -33.999 26.001s-28.666 10 -45.999 10c-18.667 0 -35 -3 -49 -9s-26 -14 -36 -24s-17.833 -21.667 -23.5 -35s-9.5 -27.333 -11.5 -42h232zM384.996 215.999
l-68.998 0.000976562c-28.667 0 -51.334 -1.83301 -68.001 -5.5s-29.334 -8.5 -38.001 -14.5s-14.334 -13 -17.001 -21s-4 -16.333 -4 -25c0 -11.333 2.33301 -20.833 7 -28.5s11 -13.834 19 -18.501s17 -8 27 -10s20.333 -3 31 -3c10 0 21.333 1.66699 34 5
s24.834 8.5 36.501 15.5s21.5 16 29.5 27s12 24.167 12 39.5v39zM60.998 348c1.33301 20 6.16602 40.499 14.499 61.499s21.833 40.333 40.5 58s43 32.167 73 43.5s67.667 17 113 17c13.333 0 28 -1.16699 44 -3.5s32 -6 48 -11s31.667 -11.5 47 -19.5s29.333 -18 42 -30
c19.333 19.333 42.666 34.833 69.999 46.5s55 17.5 83 17.5c38.667 0 74.167 -6.33301 106.5 -19s60 -30.834 83 -54.501s41 -52.334 54 -86.001s19.5 -71.167 19.5 -112.5v-40h-376c1.33301 -15.333 4.83301 -30.166 10.5 -44.499s13.334 -27 23.001 -38s21.667 -20 36 -27
s31.166 -10.5 50.499 -10.5c22 0 42.167 5.16699 60.5 15.5s32.5 25.5 42.5 45.5l140 -11c-17.333 -52.667 -48.166 -92.5 -92.499 -119.5s-96.833 -40.5 -157.5 -40.5c-24.667 0 -46.5 2.16699 -65.5 6.5s-36.5 10.5 -52.5 18.5s-30.833 17.667 -44.5 29
s-27.167 24.333 -40.5 39c-16 -17.333 -31 -31.833 -45 -43.5s-29 -21.167 -45 -28.5s-33.5 -12.666 -52.5 -15.999s-40.833 -5 -65.5 -5c-20 0 -40.667 2.66699 -62 8s-40.833 14.166 -58.5 26.499s-32 28.5 -43 48.5s-16.5 44.667 -16.5 74
c0 12.667 2.16699 28.334 6.5 47.001s15.333 36.834 33 54.501s44 32.667 79 45s83.167 18.5 144.5 18.5h77v25c0 30.667 -7.66699 53.5 -23 68.5s-37.333 22.5 -66 22.5c-32.667 0 -57.667 -6.83301 -75 -20.5s-26.666 -32.167 -27.999 -55.5h-132z" />
    <glyph glyph-name="ccedilla" unicode="&#xe7;" 
d="M375 317c-0.666992 18 -3.66895 32.8359 -9.00195 44.5029s-11.833 20.667 -19.5 27s-16.334 10.833 -26.001 13.5s-19.167 4 -28.5 4c-22 0 -39.667 -5.16699 -53 -15.5s-23.5 -23.5 -30.5 -39.5s-11.5 -33.333 -13.5 -52s-3 -36.334 -3 -53.001
c0 -17.333 1.66699 -34.5 5 -51.5s8.83301 -32.333 16.5 -46s17.834 -24.834 30.501 -33.501s28.334 -13 47.001 -13c28 0 49.167 7.66699 63.5 23s23.5 35.666 27.5 60.999l141 -5c-5.33301 -28 -13.833 -54 -25.5 -78s-26.667 -44.667 -45 -62s-40.5 -30.833 -66.5 -40.5
s-56.333 -14.5 -91 -14.5c-42 0 -78.833 6.5 -110.5 19.5s-58 31.167 -79 54.5s-36.833 51.333 -47.5 84s-16 68.667 -16 108c0 41.333 5.66699 79 17 113s27.833 63 49.5 87s47.834 42.667 78.501 56s65.667 20 105 20c38 0 71.333 -5.5 100 -16.5s52.5 -26 71.5 -45
s33.5 -40.833 43.5 -65.5s16 -50.667 18 -78zM196.998 -87.9971l66.001 94h68l-38 -52l2 -2c4 0.666992 8.16699 1.16699 12.5 1.5s9.16602 0.5 14.499 0.5c22.667 0 41.5 -7.83301 56.5 -23.5s22.5 -36.834 22.5 -63.501c0 -30.667 -11.167 -55.167 -33.5 -73.5
s-51.833 -27.5 -88.5 -27.5c-28 0 -52.5 3 -73.5 9s-36.167 11.667 -45.5 17l19 53c14 -6 26.5 -10.5 37.5 -13.5s22.167 -4.5 33.5 -4.5c5.33301 0 11.166 0.333008 17.499 1s12.333 2.33398 18 5.00098s10.334 6.5 14.001 11.5s5.5 11.833 5.5 20.5s-3.33301 17 -10 25
s-18.667 12 -36 12c-18 0 -31.333 -3 -40 -9z" />
    <glyph glyph-name="egrave" unicode="&#xe8;" horiz-adv-x="610" 
d="M424 308c-1.33301 12.667 -4.66992 25.499 -10.0029 38.499s-12.666 24.833 -21.999 35.5s-20.666 19.334 -33.999 26.001s-28.666 10 -45.999 10c-18.667 0 -35 -3 -49 -9s-26 -14 -36 -24s-17.833 -21.667 -23.5 -35s-9.5 -27.333 -11.5 -42h232zM191.996 215.999
c1.33301 -15.333 4.83203 -30.168 10.499 -44.501s13.334 -27 23.001 -38s21.667 -20 36 -27s31.166 -10.5 50.499 -10.5c22 0 42.167 5.16699 60.5 15.5s32.5 25.5 42.5 45.5l140 -11c-17.333 -52.667 -48.166 -92.5 -92.499 -119.5s-96.833 -40.5 -157.5 -40.5
c-38.667 0 -74.167 6.33301 -106.5 19s-60 30.834 -83 54.501s-41 52 -54 85s-19.5 70.167 -19.5 111.5s6.5 78.833 19.5 112.5s31 62.334 54 86.001s50.667 41.834 83 54.501s67.833 19 106.5 19s74.167 -6.33301 106.5 -19s60 -30.834 83 -54.501s41 -52.334 54 -86.001
s19.5 -71.167 19.5 -112.5v-40h-376zM179.995 741.997h135l88 -140h-83z" />
    <glyph glyph-name="eacute" unicode="&#xe9;" horiz-adv-x="610" 
d="M424 308c-1.33301 12.667 -4.66992 25.499 -10.0029 38.499s-12.666 24.833 -21.999 35.5s-20.666 19.334 -33.999 26.001s-28.666 10 -45.999 10c-18.667 0 -35 -3 -49 -9s-26 -14 -36 -24s-17.833 -21.667 -23.5 -35s-9.5 -27.333 -11.5 -42h232zM191.996 215.999
c1.33301 -15.333 4.83203 -30.168 10.499 -44.501s13.334 -27 23.001 -38s21.667 -20 36 -27s31.166 -10.5 50.499 -10.5c22 0 42.167 5.16699 60.5 15.5s32.5 25.5 42.5 45.5l140 -11c-17.333 -52.667 -48.166 -92.5 -92.499 -119.5s-96.833 -40.5 -157.5 -40.5
c-38.667 0 -74.167 6.33301 -106.5 19s-60 30.834 -83 54.501s-41 52 -54 85s-19.5 70.167 -19.5 111.5s6.5 78.833 19.5 112.5s31 62.334 54 86.001s50.667 41.834 83 54.501s67.833 19 106.5 19s74.167 -6.33301 106.5 -19s60 -30.834 83 -54.501s41 -52.334 54 -86.001
s19.5 -71.167 19.5 -112.5v-40h-376zM339.995 741.997h135l-140 -140h-83z" />
    <glyph glyph-name="ecircumflex" unicode="&#xea;" horiz-adv-x="610" 
d="M424 308c-1.33301 12.667 -4.66992 25.499 -10.0029 38.499s-12.666 24.833 -21.999 35.5s-20.666 19.334 -33.999 26.001s-28.666 10 -45.999 10c-18.667 0 -35 -3 -49 -9s-26 -14 -36 -24s-17.833 -21.667 -23.5 -35s-9.5 -27.333 -11.5 -42h232zM191.996 215.999
c1.33301 -15.333 4.83203 -30.168 10.499 -44.501s13.334 -27 23.001 -38s21.667 -20 36 -27s31.166 -10.5 50.499 -10.5c22 0 42.167 5.16699 60.5 15.5s32.5 25.5 42.5 45.5l140 -11c-17.333 -52.667 -48.166 -92.5 -92.499 -119.5s-96.833 -40.5 -157.5 -40.5
c-38.667 0 -74.167 6.33301 -106.5 19s-60 30.834 -83 54.501s-41 52 -54 85s-19.5 70.167 -19.5 111.5s6.5 78.833 19.5 112.5s31 62.334 54 86.001s50.667 41.834 83 54.501s67.833 19 106.5 19s74.167 -6.33301 106.5 -19s60 -30.834 83 -54.501s41 -52.334 54 -86.001
s19.5 -71.167 19.5 -112.5v-40h-376zM304.995 685.997l-70 -90h-92l107 146h110l107 -146h-92z" />
    <glyph glyph-name="edieresis" unicode="&#xeb;" horiz-adv-x="610" 
d="M424 308c-1.33301 12.667 -4.66992 25.499 -10.0029 38.499s-12.666 24.833 -21.999 35.5s-20.666 19.334 -33.999 26.001s-28.666 10 -45.999 10c-18.667 0 -35 -3 -49 -9s-26 -14 -36 -24s-17.833 -21.667 -23.5 -35s-9.5 -27.333 -11.5 -42h232zM191.996 215.999
c1.33301 -15.333 4.83203 -30.168 10.499 -44.501s13.334 -27 23.001 -38s21.667 -20 36 -27s31.166 -10.5 50.499 -10.5c22 0 42.167 5.16699 60.5 15.5s32.5 25.5 42.5 45.5l140 -11c-17.333 -52.667 -48.166 -92.5 -92.499 -119.5s-96.833 -40.5 -157.5 -40.5
c-38.667 0 -74.167 6.33301 -106.5 19s-60 30.834 -83 54.501s-41 52 -54 85s-19.5 70.167 -19.5 111.5s6.5 78.833 19.5 112.5s31 62.334 54 86.001s50.667 41.834 83 54.501s67.833 19 106.5 19s74.167 -6.33301 106.5 -19s60 -30.834 83 -54.501s41 -52.334 54 -86.001
s19.5 -71.167 19.5 -112.5v-40h-376zM411.995 751.997c20.667 0 38.334 -7.33301 53.001 -22s22 -32.334 22 -53.001s-7.33301 -38.334 -22 -53.001s-32.334 -22 -53.001 -22s-38.334 7.33301 -53.001 22s-22 32.334 -22 53.001s7.33301 38.334 22 53.001
s32.334 22 53.001 22zM197.995 751.997c20.667 0 38.334 -7.33301 53.001 -22s22 -32.334 22 -53.001s-7.33301 -38.334 -22 -53.001s-32.334 -22 -53.001 -22s-38.334 7.33301 -53.001 22s-22 32.334 -22 53.001s7.33301 38.334 22 53.001s32.334 22 53.001 22z" />
    <glyph glyph-name="igrave" unicode="&#xec;" horiz-adv-x="278" 
d="M67 514h144v-514h-144v514zM-5 742h135l88 -140h-83z" />
    <glyph glyph-name="iacute" unicode="&#xed;" horiz-adv-x="278" 
d="M67 514h144v-514h-144v514zM149 742h135l-140 -140h-83z" />
    <glyph glyph-name="icircumflex" unicode="&#xee;" horiz-adv-x="278" 
d="M67 514h144v-514h-144v514zM139 686l-70 -90h-92l107 146h110l107 -146h-92z" />
    <glyph glyph-name="idieresis" unicode="&#xef;" horiz-adv-x="278" 
d="M67 514h144v-514h-144v514zM246 752c20.667 0 38.334 -7.33301 53.001 -22s22 -32.334 22 -53.001s-7.33301 -38.334 -22 -53.001s-32.334 -22 -53.001 -22s-38.334 7.33301 -53.001 22s-22 32.334 -22 53.001s7.33301 38.334 22 53.001s32.334 22 53.001 22zM32 752
c20.667 0 38.334 -7.33301 53.001 -22s22 -32.334 22 -53.001s-7.33301 -38.334 -22 -53.001s-32.334 -22 -53.001 -22s-38.334 7.33301 -53.001 22s-22 32.334 -22 53.001s7.33301 38.334 22 53.001s32.334 22 53.001 22z" />
    <glyph glyph-name="eth" unicode="&#xf0;" horiz-adv-x="610" 
d="M418 256c0 22.667 -2.66699 43.5 -8 62.5s-12.833 35.5 -22.5 49.5s-21.5 24.833 -35.5 32.5s-29.333 11.5 -46 11.5c-17.333 0 -33 -3.83301 -47 -11.5s-26 -18.5 -36 -32.5s-17.667 -30.5 -23 -49.5s-8 -39.833 -8 -62.5c0 -22 2.66699 -42.333 8 -61s13 -35 23 -49
s22 -24.833 36 -32.5s29.667 -11.5 47 -11.5c16.667 0 32 3.83301 46 11.5s25.833 18.5 35.5 32.5s17.167 30.333 22.5 49s8 39 8 61zM103 633l120 52.998c-15.333 12 -30.666 23 -45.999 33s-32 20 -50 30l118 57l45 -33.5c14.667 -11 30 -23.167 46 -36.5l125 55l50 -53
l-117 -52c29.333 -27.333 54.833 -55.333 76.5 -84s39.834 -58.834 54.501 -90.501s25.5 -65.167 32.5 -100.5s10.5 -73.333 10.5 -114c0 -42 -4.66699 -81.833 -14 -119.5s-24.333 -70.667 -45 -99s-47.834 -50.833 -81.501 -67.5s-74.5 -25 -122.5 -25
c-38.667 0 -74.167 6.33301 -106.5 19s-60 30.834 -83 54.501s-41 52 -54 85s-19.5 70.167 -19.5 111.5s6.16699 78.833 18.5 112.5s29.333 62.334 51 86.001s47.167 41.834 76.5 54.501s61.333 19 96 19c22 0 41.667 -2.66699 59 -8s34.666 -14 51.999 -26h2
c-11.333 22 -27 45.833 -47 71.5s-42.667 49.167 -68 70.5l-123 -54z" />
    <glyph glyph-name="ntilde" unicode="&#xf1;" horiz-adv-x="610" 
d="M397 313c0 18.667 -2.49805 34.332 -7.49805 46.999s-11.833 22.834 -20.5 30.501s-18.334 13.167 -29.001 16.5s-21.667 5 -33 5c-29.333 0 -52.333 -11.167 -69 -33.5s-25 -51.166 -25 -86.499v-292h-144v514h138v-67h2c21.333 31.333 44.666 52.666 69.999 63.999
s52.666 17 81.999 17c30.667 0 57.334 -4.66699 80.001 -14s41.5 -22.166 56.5 -38.499s26 -35.333 33 -57s10.5 -44.834 10.5 -69.501v-349h-144v313zM129.002 602.998c2 13.333 5.33301 27.001 10 41.001s11.334 26.667 20.001 38s19.5 20.5 32.5 27.5
s28.5 10.5 46.5 10.5c13.333 0 26.333 -1.83301 39 -5.5s24.667 -7.83398 36 -12.501l33.5 -13c10.333 -4 20.166 -6 29.499 -6c13.333 0 24 3.66699 32 11s13.333 17.666 16 30.999h57c-2 -13.333 -5.33301 -26.833 -10 -40.5s-11.334 -26.167 -20.001 -37.5
s-19.334 -20.5 -32.001 -27.5s-28 -10.5 -46 -10.5c-13.333 0 -26.333 1.83301 -39 5.5s-24.667 7.83398 -36 12.501l-33.5 13c-10.333 4 -20.166 6 -29.499 6c-27.333 0 -43.666 -14.333 -48.999 -43h-57z" />
    <glyph glyph-name="ograve" unicode="&#xf2;" horiz-adv-x="610" 
d="M418 257c0 44.667 -9.33301 81.667 -28 111s-47 44 -85 44s-66.333 -14.667 -85 -44s-28 -66.333 -28 -111s9.33301 -81.667 28 -111s47 -44 85 -44s66.333 14.667 85 44s28 66.333 28 111zM568 257c0 -41.333 -6.5 -78.666 -19.5 -111.999s-31 -61.833 -54 -85.5
s-50.667 -41.834 -83 -54.501s-67.833 -19 -106.5 -19s-74.167 6.33301 -106.5 19s-60 30.834 -83 54.501s-41 52.167 -54 85.5s-19.5 70.666 -19.5 111.999s6.5 78.666 19.5 111.999s31 61.833 54 85.5s50.667 41.834 83 54.501s67.833 19 106.5 19
s74.167 -6.33301 106.5 -19s60 -30.834 83 -54.501s41 -52.167 54 -85.5s19.5 -70.666 19.5 -111.999zM170 742h135l88 -140h-83z" />
    <glyph glyph-name="oacute" unicode="&#xf3;" horiz-adv-x="610" 
d="M418 257c0 44.667 -9.33301 81.667 -28 111s-47 44 -85 44s-66.333 -14.667 -85 -44s-28 -66.333 -28 -111s9.33301 -81.667 28 -111s47 -44 85 -44s66.333 14.667 85 44s28 66.333 28 111zM568 257c0 -41.333 -6.5 -78.666 -19.5 -111.999s-31 -61.833 -54 -85.5
s-50.667 -41.834 -83 -54.501s-67.833 -19 -106.5 -19s-74.167 6.33301 -106.5 19s-60 30.834 -83 54.501s-41 52.167 -54 85.5s-19.5 70.666 -19.5 111.999s6.5 78.666 19.5 111.999s31 61.833 54 85.5s50.667 41.834 83 54.501s67.833 19 106.5 19
s74.167 -6.33301 106.5 -19s60 -30.834 83 -54.501s41 -52.167 54 -85.5s19.5 -70.666 19.5 -111.999zM305 742h135l-140 -140h-83z" />
    <glyph glyph-name="ocircumflex" unicode="&#xf4;" horiz-adv-x="610" 
d="M418 257c0 44.667 -9.33301 81.667 -28 111s-47 44 -85 44s-66.333 -14.667 -85 -44s-28 -66.333 -28 -111s9.33301 -81.667 28 -111s47 -44 85 -44s66.333 14.667 85 44s28 66.333 28 111zM568 257c0 -41.333 -6.5 -78.666 -19.5 -111.999s-31 -61.833 -54 -85.5
s-50.667 -41.834 -83 -54.501s-67.833 -19 -106.5 -19s-74.167 6.33301 -106.5 19s-60 30.834 -83 54.501s-41 52.167 -54 85.5s-19.5 70.666 -19.5 111.999s6.5 78.666 19.5 111.999s31 61.833 54 85.5s50.667 41.834 83 54.501s67.833 19 106.5 19
s74.167 -6.33301 106.5 -19s60 -30.834 83 -54.501s41 -52.167 54 -85.5s19.5 -70.666 19.5 -111.999zM305 686l-70 -90h-92l107 146h110l107 -146h-92z" />
    <glyph glyph-name="otilde" unicode="&#xf5;" horiz-adv-x="610" 
d="M418 257c0 44.667 -9.33301 81.667 -28 111s-47 44 -85 44s-66.333 -14.667 -85 -44s-28 -66.333 -28 -111s9.33301 -81.667 28 -111s47 -44 85 -44s66.333 14.667 85 44s28 66.333 28 111zM568 257c0 -41.333 -6.5 -78.666 -19.5 -111.999s-31 -61.833 -54 -85.5
s-50.667 -41.834 -83 -54.501s-67.833 -19 -106.5 -19s-74.167 6.33301 -106.5 19s-60 30.834 -83 54.501s-41 52.167 -54 85.5s-19.5 70.666 -19.5 111.999s6.5 78.666 19.5 111.999s31 61.833 54 85.5s50.667 41.834 83 54.501s67.833 19 106.5 19
s74.167 -6.33301 106.5 -19s60 -30.834 83 -54.501s41 -52.167 54 -85.5s19.5 -70.666 19.5 -111.999zM129 603c2 13.333 5.33301 27.001 10 41.001s11.334 26.667 20.001 38s19.5 20.5 32.5 27.5s28.5 10.5 46.5 10.5c13.333 0 26.333 -1.83301 39 -5.5
s24.667 -7.83398 36 -12.501l33.5 -13c10.333 -4 20.166 -6 29.499 -6c13.333 0 24 3.66699 32 11s13.333 17.666 16 30.999h57c-2 -13.333 -5.33301 -26.833 -10 -40.5s-11.334 -26.167 -20.001 -37.5s-19.334 -20.5 -32.001 -27.5s-28 -10.5 -46 -10.5
c-13.333 0 -26.333 1.83301 -39 5.5s-24.667 7.83398 -36 12.501l-33.5 13c-10.333 4 -20.166 6 -29.499 6c-27.333 0 -43.666 -14.333 -48.999 -43h-57z" />
    <glyph glyph-name="odieresis" unicode="&#xf6;" horiz-adv-x="610" 
d="M418 257c0 44.667 -9.33301 81.667 -28 111s-47 44 -85 44s-66.333 -14.667 -85 -44s-28 -66.333 -28 -111s9.33301 -81.667 28 -111s47 -44 85 -44s66.333 14.667 85 44s28 66.333 28 111zM568 257c0 -41.333 -6.5 -78.666 -19.5 -111.999s-31 -61.833 -54 -85.5
s-50.667 -41.834 -83 -54.501s-67.833 -19 -106.5 -19s-74.167 6.33301 -106.5 19s-60 30.834 -83 54.501s-41 52.167 -54 85.5s-19.5 70.666 -19.5 111.999s6.5 78.666 19.5 111.999s31 61.833 54 85.5s50.667 41.834 83 54.501s67.833 19 106.5 19
s74.167 -6.33301 106.5 -19s60 -30.834 83 -54.501s41 -52.167 54 -85.5s19.5 -70.666 19.5 -111.999zM412 752c20.667 0 38.334 -7.33301 53.001 -22s22 -32.334 22 -53.001s-7.33301 -38.334 -22 -53.001s-32.334 -22 -53.001 -22s-38.334 7.33301 -53.001 22
s-22 32.334 -22 53.001s7.33301 38.334 22 53.001s32.334 22 53.001 22zM198 752c20.667 0 38.334 -7.33301 53.001 -22s22 -32.334 22 -53.001s-7.33301 -38.334 -22 -53.001s-32.334 -22 -53.001 -22s-38.334 7.33301 -53.001 22s-22 32.334 -22 53.001
s7.33301 38.334 22 53.001s32.334 22 53.001 22z" />
    <glyph glyph-name="divide" unicode="&#xf7;" horiz-adv-x="600" 
d="M216 46c0 23.333 8.16699 43.166 24.5 59.499s36.166 24.5 59.499 24.5s43.166 -8.16699 59.499 -24.5s24.5 -36.166 24.5 -59.499s-8.16699 -43.166 -24.5 -59.499s-36.166 -24.5 -59.499 -24.5s-43.166 8.16699 -59.499 24.5s-24.5 36.166 -24.5 59.499zM216 460
c0 23.333 8.16699 43.166 24.5 59.499s36.166 24.5 59.499 24.5s43.166 -8.16699 59.499 -24.5s24.5 -36.166 24.5 -59.499s-8.16699 -43.166 -24.5 -59.499s-36.166 -24.5 -59.499 -24.5s-43.166 8.16699 -59.499 24.5s-24.5 36.166 -24.5 59.499zM47 305h506v-104h-506
v104z" />
    <glyph glyph-name="oslash" unicode="&#xf8;" horiz-adv-x="610" 
d="M99 78c-18 23.333 -31.998 49.999 -41.998 79.999s-15 63 -15 99c0 41.333 6.5 78.666 19.5 111.999s31 61.833 54 85.5s50.667 41.834 83 54.501s67.833 19 106.5 19c33.333 0 64.166 -4.66699 92.499 -14s53.166 -22.666 74.499 -39.999l69 73l39 -37l-69 -74
c18 -23.333 32 -50 42 -80s15 -63 15 -99c0 -41.333 -6.5 -78.666 -19.5 -111.999s-31 -61.833 -54 -85.5s-50.667 -41.834 -83 -54.501s-67.833 -19 -106.5 -19c-66 0 -121.667 18 -167 54l-69 -73l-39 37zM381.002 378.999c-7.33301 8.66699 -17.333 16.333 -30 23
s-28 10 -46 10c-38 0 -66.333 -14.667 -85 -44s-28 -66.333 -28 -111c0 -27.333 3 -51 9 -71zM227.002 134.998c9.33301 -9.33301 20.332 -17.165 32.999 -23.498s27.667 -9.5 45 -9.5c38 0 66.333 14.667 85 44s28 66.333 28 111c0 13.333 -0.666992 25.666 -2 36.999
s-3.66602 22.666 -6.99902 33.999z" />
    <glyph glyph-name="ugrave" unicode="&#xf9;" horiz-adv-x="610" 
d="M403 67l-2.00391 0.00195312c-21.333 -31.333 -44.666 -52.666 -69.999 -63.999s-52.666 -17 -81.999 -17c-31.333 0 -58.166 4.66699 -80.499 14s-41 22.166 -56 38.499s-26 35.333 -33 57s-10.5 44.834 -10.5 69.501v349h144v-313c0 -18.667 2.5 -34.334 7.5 -47.001
s11.833 -22.834 20.5 -30.501s18.334 -13.167 29.001 -16.5s21.667 -5 33 -5c29.333 0 52.333 11.167 69 33.5s25 51.166 25 86.499v292h144v-514h-138v67zM154.996 742.002h135l88 -140h-83z" />
    <glyph glyph-name="uacute" unicode="&#xfa;" horiz-adv-x="610" 
d="M403 67l-2.00391 0.00195312c-21.333 -31.333 -44.666 -52.666 -69.999 -63.999s-52.666 -17 -81.999 -17c-31.333 0 -58.166 4.66699 -80.499 14s-41 22.166 -56 38.499s-26 35.333 -33 57s-10.5 44.834 -10.5 69.501v349h144v-313c0 -18.667 2.5 -34.334 7.5 -47.001
s11.833 -22.834 20.5 -30.501s18.334 -13.167 29.001 -16.5s21.667 -5 33 -5c29.333 0 52.333 11.167 69 33.5s25 51.166 25 86.499v292h144v-514h-138v67zM319.996 742.002h135l-140 -140h-83z" />
    <glyph glyph-name="ucircumflex" unicode="&#xfb;" horiz-adv-x="610" 
d="M403 67l-2.00391 0.00195312c-21.333 -31.333 -44.666 -52.666 -69.999 -63.999s-52.666 -17 -81.999 -17c-31.333 0 -58.166 4.66699 -80.499 14s-41 22.166 -56 38.499s-26 35.333 -33 57s-10.5 44.834 -10.5 69.501v349h144v-313c0 -18.667 2.5 -34.334 7.5 -47.001
s11.833 -22.834 20.5 -30.501s18.334 -13.167 29.001 -16.5s21.667 -5 33 -5c29.333 0 52.333 11.167 69 33.5s25 51.166 25 86.499v292h144v-514h-138v67zM304.996 686.002l-70 -90h-92l107 146h110l107 -146h-92z" />
    <glyph glyph-name="udieresis" unicode="&#xfc;" horiz-adv-x="610" 
d="M403 67l-2.00391 0.00195312c-21.333 -31.333 -44.666 -52.666 -69.999 -63.999s-52.666 -17 -81.999 -17c-31.333 0 -58.166 4.66699 -80.499 14s-41 22.166 -56 38.499s-26 35.333 -33 57s-10.5 44.834 -10.5 69.501v349h144v-313c0 -18.667 2.5 -34.334 7.5 -47.001
s11.833 -22.834 20.5 -30.501s18.334 -13.167 29.001 -16.5s21.667 -5 33 -5c29.333 0 52.333 11.167 69 33.5s25 51.166 25 86.499v292h144v-514h-138v67zM411.996 752.002c20.667 0 38.334 -7.33301 53.001 -22s22 -32.334 22 -53.001s-7.33301 -38.334 -22 -53.001
s-32.334 -22 -53.001 -22s-38.334 7.33301 -53.001 22s-22 32.334 -22 53.001s7.33301 38.334 22 53.001s32.334 22 53.001 22zM197.996 752.002c20.667 0 38.334 -7.33301 53.001 -22s22 -32.334 22 -53.001s-7.33301 -38.334 -22 -53.001s-32.334 -22 -53.001 -22
s-38.334 7.33301 -53.001 22s-22 32.334 -22 53.001s7.33301 38.334 22 53.001s32.334 22 53.001 22z" />
    <glyph glyph-name="yacute" unicode="&#xfd;" 
d="M203 0l-193 514h158l109 -340h2l109 340h158l-278 -738h-151zM293 742h135l-140 -140h-83z" />
    <glyph glyph-name="thorn" unicode="&#xfe;" horiz-adv-x="667" 
d="M78 752h144v-303h2c16.667 26 39.334 45.667 68.001 59s59.667 20 93 20c36 0 68.667 -7.5 98 -22.5s54.5 -35 75.5 -60s37.333 -53.833 49 -86.5s17.5 -67 17.5 -103s-5.5 -70.167 -16.5 -102.5s-26.667 -61 -47 -86s-45.333 -44.833 -75 -59.5s-62.834 -22 -99.501 -22
c-33.333 0 -62.833 6 -88.5 18s-50.5 34 -74.5 66h-2v-294h-144v976zM475 260c0 20 -2.83398 39.168 -8.50098 57.501s-14 34.5 -25 48.5s-24.5 25.167 -40.5 33.5s-34.667 12.5 -56 12.5c-20.667 0 -38.834 -4 -54.501 -12s-29 -19 -40 -33s-19.333 -30.333 -25 -49
s-8.5 -38.667 -8.5 -60c0 -19.333 2.66699 -38 8 -56s13.5 -34 24.5 -48s24.667 -25.167 41 -33.5s35.833 -12.5 58.5 -12.5c20.667 0 38.834 4.33301 54.501 13s28.834 20 39.501 34s18.667 30.167 24 48.5s8 37.166 8 56.499z" />
    <glyph glyph-name="ydieresis" unicode="&#xff;" 
d="M203 0l-193 514h158l109 -340h2l109 340h158l-278 -738h-151zM385 752c20.667 0 38.334 -7.33301 53.001 -22s22 -32.334 22 -53.001s-7.33301 -38.334 -22 -53.001s-32.334 -22 -53.001 -22s-38.334 7.33301 -53.001 22s-22 32.334 -22 53.001s7.33301 38.334 22 53.001
s32.334 22 53.001 22zM171 752c20.667 0 38.334 -7.33301 53.001 -22s22 -32.334 22 -53.001s-7.33301 -38.334 -22 -53.001s-32.334 -22 -53.001 -22s-38.334 7.33301 -53.001 22s-22 32.334 -22 53.001s7.33301 38.334 22 53.001s32.334 22 53.001 22z" />
    <glyph glyph-name="dotlessi" unicode="&#x131;" horiz-adv-x="278" 
d="M67 514h144v-514h-144v514z" />
    <glyph glyph-name="Lslash" unicode="&#x141;" 
d="M-2 325l85 50v377h150v-289l203 119v-115l-203 -119v-208h289v-140h-439v260l-85 -50v115z" />
    <glyph glyph-name="lslash" unicode="&#x142;" horiz-adv-x="278" 
d="M-6 364l73 45v343h144v-254l73 45v-102l-73 -45v-396h-144v307l-73 -45v102z" />
    <glyph glyph-name="OE" unicode="&#x152;" horiz-adv-x="1000" 
d="M557 87l-1.99902 -0.00195312c-14.667 -22.667 -31 -40.667 -49 -54s-36 -23.5 -54 -30.5s-35.333 -11.5 -52 -13.5s-31 -3 -43 -3c-20 0 -41.5 2.33301 -64.5 7s-46.167 12.834 -69.5 24.501s-45.666 27.334 -66.999 47.001s-40.333 44.5 -57 74.5s-30 65.5 -40 106.5
s-15 88.5 -15 142.5c0 57.333 8.5 109.333 25.5 156s39.5 86.5 67.5 119.5s60.5 58.333 97.5 76s75.5 26.5 115.5 26.5c55.333 0 99.666 -9.16699 132.999 -27.5s57.666 -40.833 72.999 -67.5h2v81h394v-134h-251v-171h242v-134h-242v-179h251v-134h-395v87z
M557.001 374.998c0 20.667 -1.99902 45.667 -5.99902 75s-12.167 57.5 -24.5 84.5s-30.333 50 -54 69s-55.5 28.5 -95.5 28.5c-30 0 -56.5 -6.5 -79.5 -19.5s-42.167 -31 -57.5 -54s-26.833 -50.333 -34.5 -82s-11.5 -65.834 -11.5 -102.501
c0 -39.333 4.33301 -74.666 13 -105.999s21 -58 37 -80s35.167 -38.833 57.5 -50.5s47.166 -17.5 74.499 -17.5c30 0 56.333 6.66699 79 20s41.5 31.5 56.5 54.5s26.333 50 34 81s11.5 64.167 11.5 99.5z" />
    <glyph glyph-name="oe" unicode="&#x153;" horiz-adv-x="944" 
d="M544 220c0 -17.333 2.00488 -33.502 6.00488 -48.502s10.167 -28.167 18.5 -39.5s19.166 -20.166 32.499 -26.499s29 -9.5 47 -9.5c22 0 41.833 4.83301 59.5 14.5s32.5 25.167 44.5 46.5l140 -11c-10.667 -32.667 -25.834 -59.334 -45.501 -80.001
s-41.167 -37 -64.5 -49s-47.333 -20.167 -72 -24.5s-47.334 -6.5 -68.001 -6.5c-36 0 -69 6.5 -99 19.5s-54.667 33.5 -74 61.5c-7.33301 -9.33301 -16 -18.833 -26 -28.5s-22 -18.334 -36 -26.001s-30.5 -14 -49.5 -19s-40.833 -7.5 -65.5 -7.5
c-36.667 0 -70.5 6.33301 -101.5 19s-57.833 30.834 -80.5 54.501s-40.334 52 -53.001 85s-19 70.167 -19 111.5s6.5 78.833 19.5 112.5s31 62.334 54 86.001s50.667 41.834 83 54.501s67.833 19 106.5 19c33.333 0 65.166 -5.5 95.499 -16.5s57.166 -31.833 80.499 -62.5
c22.667 29.333 49.834 49.833 81.501 61.5s65.5 17.5 101.5 17.5c38.667 0 73.167 -6.5 103.5 -19.5s56 -31.5 77 -55.5s37.167 -53.167 48.5 -87.5s17 -72.833 17 -115.5v-30h-362zM756.005 305.998c0 21.333 -3.16699 39.166 -9.5 53.499s-14.5 25.833 -24.5 34.5
s-21.333 14.834 -34 18.501s-25 5.5 -37 5.5c-32 0 -57 -10.167 -75 -30.5s-29 -47.5 -33 -81.5h213zM411.005 264.998c0 45.333 -10.5 80.1699 -31.5 104.503s-47.167 36.5 -78.5 36.5c-34.667 0 -62.167 -13.833 -82.5 -41.5s-30.5 -63.834 -30.5 -108.501
c0 -46.667 9.83301 -83 29.5 -109s47.5 -39 83.5 -39c21.333 0 39 5 53 15s25.333 22.667 34 38s14.667 32.166 18 50.499s5 36.166 5 53.499z" />
    <glyph glyph-name="Scaron" unicode="&#x160;" horiz-adv-x="667" 
d="M447 554c0 26 -10.8262 46.5039 -32.4932 61.5039s-47.5 22.5 -77.5 22.5c-38 0 -67.5 -7.5 -88.5 -22.5s-31.5 -35.167 -31.5 -60.5c0 -13.333 2.83301 -24.833 8.5 -34.5s12.667 -18 21 -25s17.666 -13 27.999 -18s20.166 -8.83301 29.499 -11.5l138 -44
c24.667 -8 47.5 -17.833 68.5 -29.5s39.167 -25.667 54.5 -42s27.166 -35.666 35.499 -57.999s12.5 -47.833 12.5 -76.5c0 -23.333 -4.5 -48.333 -13.5 -75s-24.167 -51.5 -45.5 -74.5s-49.5 -42.167 -84.5 -57.5s-78.5 -23 -130.5 -23c-43.333 0 -80.5 4.33301 -111.5 13
s-57.167 19.834 -78.5 33.501s-38.166 29.167 -50.499 46.5s-21.833 34.666 -28.5 51.999s-11 34 -13 50s-3 29.667 -3 41l150 3c0 -20 3.66699 -37 11 -51s17.166 -25.5 29.499 -34.5s26.833 -15.5 43.5 -19.5s34 -6 52 -6c12.667 0 26.167 1.66699 40.5 5
s27.666 8.33301 39.999 15s22.5 15.167 30.5 25.5s12 22.833 12 37.5c0 10 -1.33301 19 -4 27s-7.33398 15.333 -14.001 22s-15.834 13.167 -27.501 19.5s-26.834 12.833 -45.501 19.5l-164 59c-20.667 7.33301 -39.667 17.333 -57 30s-32.166 27.167 -44.499 43.5
s-22 34.166 -29 53.499s-10.5 39.666 -10.5 60.999c0 24 4.5 49.667 13.5 77s23.667 52.666 44 75.999s47.166 42.666 80.499 57.999s74.333 23 123 23c58 0 104.667 -8.33301 140 -25s62.5 -36.334 81.5 -59.001s31.667 -45.667 38 -69s9.5 -42 9.5 -56zM404.007 935.004
h92l-107 -146h-110l-107 146h92l70 -90z" />
    <glyph glyph-name="scaron" unicode="&#x161;" 
d="M353 355c-1.33301 21.333 -9.32812 38.166 -23.9951 50.499s-36 18.5 -64 18.5c-19.333 0 -36.833 -3.83301 -52.5 -11.5s-23.5 -19.167 -23.5 -34.5s7.83301 -26.666 23.5 -33.999s35.5 -13.333 59.5 -18l77 -14.5c27.333 -5 53 -13.167 77 -24.5s43.833 -27 59.5 -47
s23.5 -47.333 23.5 -82c0 -10 -2.33301 -24.667 -7 -44s-15 -38.5 -31 -57.5s-39.5 -35.5 -70.5 -49.5s-72.833 -21 -125.5 -21c-18 0 -39.5 2 -64.5 6s-49 12 -72 24s-43.333 29.5 -61 52.5s-27.834 53.5 -30.501 91.5h144c0.666992 -12.667 3.66699 -23.334 9 -32.001
s12.166 -15.834 20.499 -21.501s17.666 -9.83398 27.999 -12.501s20.833 -4 31.5 -4c9.33301 0 19 0.833008 29 2.5s19.167 4.5 27.5 8.5s15.166 9.33301 20.499 16s8 15.334 8 26.001c0 14 -7.66699 24.333 -23 31s-34.333 12.334 -57 17.001l-74 15
c-26.667 5.33301 -51.334 13.666 -74.001 24.999s-41.667 27.333 -57 48s-23 48.667 -23 84c0 20 4 39.833 12 59.5s20.5 37.334 37.5 53.001s39 28.334 66 38.001s59.5 14.5 97.5 14.5c66 0 119.333 -14.333 160 -43s63 -71 67 -127zM348.005 742h92l-107 -146h-110
l-107 146h92l70 -90z" />
    <glyph glyph-name="Ydieresis" unicode="&#x178;" horiz-adv-x="611" 
d="M436 752h165l-219 -451v-301h-150v301l-222 451h175l123 -289zM413 945c20.667 0 38.334 -7.33301 53.001 -22s22 -32.334 22 -53.001s-7.33301 -38.334 -22 -53.001s-32.334 -22 -53.001 -22s-38.334 7.33301 -53.001 22s-22 32.334 -22 53.001
s7.33301 38.334 22 53.001s32.334 22 53.001 22zM199 945c20.667 0 38.334 -7.33301 53.001 -22s22 -32.334 22 -53.001s-7.33301 -38.334 -22 -53.001s-32.334 -22 -53.001 -22s-38.334 7.33301 -53.001 22s-22 32.334 -22 53.001s7.33301 38.334 22 53.001
s32.334 22 53.001 22z" />
    <glyph glyph-name="Zcaron" unicode="&#x17d;" horiz-adv-x="611" 
d="M36 118l349 500h-325v134h515v-118l-350 -500h350v-134h-539v118zM376 935h92l-107 -146h-110l-107 146h92l70 -90z" />
    <glyph glyph-name="zcaron" unicode="&#x17e;" horiz-adv-x="500" 
d="M33 104l251 294h-237v116h420v-104l-248 -294h248v-116h-434v104zM320 742h92l-107 -146h-110l-107 146h92l70 -90z" />
    <glyph glyph-name="florin" unicode="&#x192;" 
d="M127 410h81.002l12 118c2.66699 26 6.5 52.333 11.5 79s13.5 50.834 25.5 72.501s29.167 39.167 51.5 52.5s52.166 20 89.499 20c15.333 0 27 -0.5 35 -1.5s16.667 -2.16699 26 -3.5l-10 -118c-7.33301 2.66699 -12.833 4.5 -16.5 5.5s-9.16699 1.5 -16.5 1.5
c-11.333 0 -20.5 -2.66699 -27.5 -8s-12.5 -12 -16.5 -20s-7 -16.5 -9 -25.5s-3.33301 -17.167 -4 -24.5l-14 -148h87l-10 -110h-82l-27 -328c-2.66699 -32.667 -7.33398 -61.667 -14.001 -87s-16.667 -46.833 -30 -64.5s-31.333 -31.167 -54 -40.5s-51.334 -14 -86.001 -14
c-10 0 -19.5 0.666992 -28.5 2s-17.167 2.66602 -24.5 3.99902l10 114c5.33301 -0.666992 10.833 -1.5 16.5 -2.5s11.834 -1.5 18.501 -1.5c10 0 18.333 3.16699 25 9.5s12 14.166 16 23.499s7 19.333 9 30s3.33301 20.334 4 29.001l26 326h-83z" />
    <glyph glyph-name="circumflex" unicode="&#x2c6;" horiz-adv-x="278" 
d="M139 686l-70 -90h-92l107 146h110l107 -146h-92z" />
    <glyph glyph-name="caron" unicode="&#x2c7;" horiz-adv-x="278" 
d="M209 742h92l-107 -146h-110l-107 146h92l70 -90z" />
    <glyph glyph-name="breve" unicode="&#x2d8;" horiz-adv-x="278" 
d="M300 740c-2.66699 -42.667 -18.668 -76.835 -48.001 -102.502s-67 -38.5 -113 -38.5s-83.667 12.833 -113 38.5s-45.333 59.834 -48 102.501h57c5.33301 -25.333 16.833 -44.166 34.5 -56.499s40.834 -18.5 69.501 -18.5c58.667 0 93.667 25 105 75h56z" />
    <glyph glyph-name="dotaccent" unicode="&#x2d9;" horiz-adv-x="278" 
d="M64 677c0 20.667 7.33301 38.334 22 53.001s32.334 22 53.001 22s38.334 -7.33301 53.001 -22s22 -32.334 22 -53.001s-7.33301 -38.334 -22 -53.001s-32.334 -22 -53.001 -22s-38.334 7.33301 -53.001 22s-22 32.334 -22 53.001z" />
    <glyph glyph-name="ring" unicode="&#x2da;" horiz-adv-x="278" 
d="M90 685c0 -13.333 4.83301 -24.833 14.5 -34.5s21.167 -14.5 34.5 -14.5s24.833 4.83301 34.5 14.5s14.5 21.167 14.5 34.5s-4.83301 24.833 -14.5 34.5s-21.167 14.5 -34.5 14.5s-24.833 -4.83301 -34.5 -14.5s-14.5 -21.167 -14.5 -34.5zM36 685
c0 14 2.66699 27.167 8 39.5s12.666 23.166 21.999 32.499s20.333 16.833 33 22.5s26 8.5 40 8.5s27.167 -2.66699 39.5 -8s23.166 -12.833 32.499 -22.5s16.833 -20.667 22.5 -33s8.5 -25.5 8.5 -39.5s-2.83301 -27.167 -8.5 -39.5s-13.167 -23.166 -22.5 -32.499
s-20.166 -16.833 -32.499 -22.5s-25.5 -8.5 -39.5 -8.5s-27.333 2.83301 -40 8.5s-23.667 13.167 -33 22.5s-16.666 20.333 -21.999 33s-8 25.667 -8 39z" />
    <glyph glyph-name="ogonek" unicode="&#x2db;" horiz-adv-x="278" 
d="M191 0c-22 -22 -39.334 -42.001 -52.001 -60.001s-19 -33.667 -19 -47c0 -14.667 4.5 -25.5 13.5 -32.5s19.167 -10.5 30.5 -10.5c8.66699 0 16.334 0.5 23.001 1.5s13 2.16699 19 3.5l8 -53c-10 -3.33301 -20.667 -6.16602 -32 -8.49902s-23.333 -3.5 -36 -3.5
s-25.5 1.66699 -38.5 5s-25 8.5 -36 15.5s-20 16 -27 27s-10.5 24.5 -10.5 40.5c0 22.667 10.167 43.5 30.5 62.5s46.5 38.833 78.5 59.5h48z" />
    <glyph glyph-name="tilde" unicode="&#x2dc;" horiz-adv-x="278" 
d="M-37 603c2 13.333 5.33301 27.001 10 41.001s11.334 26.667 20.001 38s19.5 20.5 32.5 27.5s28.5 10.5 46.5 10.5c13.333 0 26.333 -1.83301 39 -5.5s24.667 -7.83398 36 -12.501l33.5 -13c10.333 -4 20.166 -6 29.499 -6c13.333 0 24 3.66699 32 11
s13.333 17.666 16 30.999h57c-2 -13.333 -5.33301 -26.833 -10 -40.5s-11.334 -26.167 -20.001 -37.5s-19.334 -20.5 -32.001 -27.5s-28 -10.5 -46 -10.5c-13.333 0 -26.333 1.83301 -39 5.5s-24.667 7.83398 -36 12.501l-33.5 13c-10.333 4 -20.166 6 -29.499 6
c-27.333 0 -43.666 -14.333 -48.999 -43h-57z" />
    <glyph glyph-name="hungarumlaut" unicode="&#x2dd;" horiz-adv-x="278" 
d="M224 742h135l-140 -140h-83zM14 742h135l-140 -140h-83z" />
    <glyph glyph-name="endash" unicode="&#x2013;" horiz-adv-x="500" 
d="M0 317h500v-110h-500v110z" />
    <glyph glyph-name="emdash" unicode="&#x2014;" horiz-adv-x="1000" 
d="M0 317h1000v-110h-1000v110z" />
    <glyph glyph-name="quoteleft" unicode="&#x2018;" horiz-adv-x="278" 
d="M169 460l-134 42l114 264l94 -28z" />
    <glyph glyph-name="quoteright" unicode="&#x2019;" horiz-adv-x="278" 
d="M243 724l-115 -264l-93 28l74 278z" />
    <glyph glyph-name="quotesinglbase" unicode="&#x201a;" horiz-adv-x="278" 
d="M243 111l-115 -264l-93 28l74 278z" />
    <glyph glyph-name="quotedblleft" unicode="&#x201c;" 
d="M501 738l-74 -278l-134 42l114 264zM263 738l-74 -278l-134 42l114 264z" />
    <glyph glyph-name="quotedblright" unicode="&#x201d;" 
d="M263 724l-115 -264l-93 28l74 278zM501 724l-115 -264l-93 28l74 278z" />
    <glyph glyph-name="quotedblbase" unicode="&#x201e;" 
d="M263 111l-115 -264l-93 28l74 278zM501 111l-115 -264l-93 28l74 278z" />
    <glyph glyph-name="dagger" unicode="&#x2020;" 
d="M209 395h-166v122h166v235h138v-235h166v-122h-166v-516h-138v516z" />
    <glyph glyph-name="daggerdbl" unicode="&#x2021;" 
d="M209 431h-166v122h166v199h138v-199h166v-122h-166v-231h166v-122h-166v-199h-138v199h-166v122h166v231z" />
    <glyph glyph-name="bullet" unicode="&#x2022;" horiz-adv-x="500" 
d="M62 376c0 26 4.83301 50.333 14.5 73s23 42.5 40 59.5s37 30.5 60 40.5s47.5 15 73.5 15s50.333 -5 73 -15s42.5 -23.5 59.5 -40.5s30.5 -36.833 40.5 -59.5s15 -47 15 -73s-5 -50.5 -15 -73.5s-23.5 -43 -40.5 -60s-36.833 -30.333 -59.5 -40s-47 -14.5 -73 -14.5
s-50.5 4.83301 -73.5 14.5s-43 23 -60 40s-30.333 37 -40 60s-14.5 47.5 -14.5 73.5z" />
    <glyph glyph-name="ellipsis" unicode="&#x2026;" horiz-adv-x="1000" 
d="M749 72c0 23.333 8.16699 43.166 24.5 59.499s36.166 24.5 59.499 24.5s43.166 -8.16699 59.499 -24.5s24.5 -36.166 24.5 -59.499s-8.16699 -43.166 -24.5 -59.499s-36.166 -24.5 -59.499 -24.5s-43.166 8.16699 -59.499 24.5s-24.5 36.166 -24.5 59.499zM416 72
c0 23.333 8.16699 43.166 24.5 59.499s36.166 24.5 59.499 24.5s43.166 -8.16699 59.499 -24.5s24.5 -36.166 24.5 -59.499s-8.16699 -43.166 -24.5 -59.499s-36.166 -24.5 -59.499 -24.5s-43.166 8.16699 -59.499 24.5s-24.5 36.166 -24.5 59.499zM83 72
c0 23.333 8.16699 43.166 24.5 59.499s36.166 24.5 59.499 24.5s43.166 -8.16699 59.499 -24.5s24.5 -36.166 24.5 -59.499s-8.16699 -43.166 -24.5 -59.499s-36.166 -24.5 -59.499 -24.5s-43.166 8.16699 -59.499 24.5s-24.5 36.166 -24.5 59.499z" />
    <glyph glyph-name="perthousand" unicode="&#x2030;" horiz-adv-x="1000" 
d="M508 761h82l-431 -782h-86zM511 -12c-47.333 0 -82.5 16 -105.5 48s-34.5 75.667 -34.5 131s11.5 99 34.5 131s58.167 48 105.5 48s82.5 -16 105.5 -48s34.5 -75.667 34.5 -131s-11.5 -99 -34.5 -131s-58.167 -48 -105.5 -48zM511 62c19.333 0 31.5 8.16699 36.5 24.5
s7.5 43.166 7.5 80.499c0 34 -2.5 60 -7.5 78s-17.167 27 -36.5 27s-31.5 -9 -36.5 -27s-7.5 -44 -7.5 -78c0 -37.333 2.5 -64.166 7.5 -80.499s17.167 -24.5 36.5 -24.5zM850 -12c-47.333 0 -82.5 16 -105.5 48s-34.5 75.667 -34.5 131s11.5 99 34.5 131
s58.167 48 105.5 48s82.5 -16 105.5 -48s34.5 -75.667 34.5 -131s-11.5 -99 -34.5 -131s-58.167 -48 -105.5 -48zM850 62c19.333 0 31.5 8.16699 36.5 24.5s7.5 43.166 7.5 80.499c0 34 -2.5 60 -7.5 78s-17.167 27 -36.5 27s-31.5 -9 -36.5 -27s-7.5 -44 -7.5 -78
c0 -37.333 2.5 -64.166 7.5 -80.499s17.167 -24.5 36.5 -24.5zM150 468c19.333 0 31.5 8.16699 36.5 24.5s7.5 43.166 7.5 80.499c0 34 -2.5 60 -7.5 78s-17.167 27 -36.5 27s-31.5 -9 -36.5 -27s-7.5 -44 -7.5 -78c0 -37.333 2.5 -64.166 7.5 -80.499
s17.167 -24.5 36.5 -24.5zM150 394c-47.333 0 -82.5 16 -105.5 48s-34.5 75.667 -34.5 131s11.5 99 34.5 131s58.167 48 105.5 48s82.5 -16 105.5 -48s34.5 -75.667 34.5 -131s-11.5 -99 -34.5 -131s-58.167 -48 -105.5 -48z" />
    <glyph glyph-name="guilsinglleft" unicode="&#x2039;" horiz-adv-x="278" 
d="M138 444h110l-110 -182l105 -182h-110l-103 182z" />
    <glyph glyph-name="guilsinglright" unicode="&#x203a;" horiz-adv-x="278" 
d="M248 262l-103 -182h-110l105 182l-110 182h110z" />
    <glyph glyph-name="fraction" unicode="&#x2044;" horiz-adv-x="167" 
d="M256 752h82l-423 -764h-86z" />
    <glyph glyph-name="fraction" unicode="&#x2215;" horiz-adv-x="167" 
d="M256 752h82l-423 -764h-86z" />
    <glyph glyph-name="trademark" unicode="&#x2122;" horiz-adv-x="1000" 
d="M133 672h-117v80h338v-80h-117v-332h-104v332zM823 632h-2l-106 -292h-75l-106 292h-2v-292h-96v412h143l99 -260l98 260h143v-412h-96v292z" />
    <glyph glyph-name="minus" unicode="&#x2212;" horiz-adv-x="600" 
d="M47 305h506v-104h-506v104z" />
    <glyph glyph-name=".null" horiz-adv-x="0" 
 />
    <glyph glyph-name="nonmarkingreturn" horiz-adv-x="278" 
 />
  </font>
</defs>
</svg>
