<?xml version="1.0" encoding="utf-8"?>
<!-- Generator: Adobe Illustrator 22.1.0, SVG Export Plug-In . SVG Version: 6.00 Build 0)  -->
<svg version="1.1" id="Layer_1" xmlns="http://www.w3.org/2000/svg" xmlns:xlink="http://www.w3.org/1999/xlink" x="0px" y="0px"
	 viewBox="0 0 200 200" style="enable-background:new 0 0 200 200;fill:#fff;stroke:#fff;" xml:space="preserve">
<!--   <style type="text/css">
	.st0{clip-path:url(#SVGID_2_);fill:none;stroke:#fff;}
</style> -->
<g>
	<path d="M197.2,183.6c-4.6,4.6-9,9-13.4,13.4c-27.7-27.7-55.5-55.5-83.3-83.3c-27.9,27.9-55.8,55.8-83.5,83.5
		c-4.6-4.6-9-9-13.5-13.5C31.2,156,59,128.2,86.8,100.4C58.9,72.4,31.1,44.6,3.4,16.9c4.6-4.5,9-9,13.5-13.5
		c27.7,27.7,55.5,55.5,83.2,83.2c27.9-27.9,55.6-55.6,83.3-83.3c4.6,4.6,9.1,9.1,13.5,13.5c-27.6,27.6-55.4,55.4-83.2,83.2
		C141.6,128,169.4,155.8,197.2,183.6z"/>
</g>
</svg>
